<?xml version="1.0" encoding="UTF-8"?>
<!DOCTYPE svg PUBLIC "-//W3C//DTD SVG 1.1//EN" "http://www.w3.org/Graphics/SVG/1.1/DTD/svg11.dtd">
<!-- Creator: CorelDRAW -->
<svg xmlns="http://www.w3.org/2000/svg" xml:space="preserve" width="86.36mm" height="28.7866mm" style="shape-rendering:geometricPrecision; text-rendering:geometricPrecision; image-rendering:optimizeQuality; fill-rule:evenodd; clip-rule:evenodd"
viewBox="0 0 86.36 28.7866"
 xmlns:xlink="http://www.w3.org/1999/xlink">
 <defs>
  <style type="text/css">
   <![CDATA[
    .str0 {stroke:#2B2A29;stroke-width:0.2}
    .fil1 {fill:#EEB91D}
    .fil0 {fill:white}
    .fil2 {fill:black;fill-rule:nonzero}
    .fil3 {fill:#EEB91D;fill-rule:nonzero}
   ]]>
  </style>
 </defs>
 <g id="Layer_x0020_1">
  <metadata id="CorelCorpID_0Corel-Layer"/>
  <g id="_586482728">
   <path id="_586484576" class="fil0 str0" d="M16.2363 1.4868c7.129,0 12.9083,5.7793 12.9083,12.9083 0,7.1291 -5.7793,12.9083 -12.9083,12.9083 -7.1291,0 -12.9083,-5.7792 -12.9083,-12.9083 0,-7.129 5.7792,-12.9083 12.9083,-12.9083z"/>
   <path id="_586485176" class="fil1" d="M16.209 0.9428c-7.4285,0 -13.4512,6.0216 -13.4512,13.4508 0,7.4278 6.0227,13.4502 13.4512,13.4502 7.4279,0 13.4508,-6.0224 13.4508,-13.4502 0,-7.4291 -6.0227,-13.4508 -13.4508,-13.4508zm12.4917 14.2841c-0.3433,0.0069 -0.6168,0.2919 -0.6086,0.6362 0.0065,0.2858 0.2047,0.5196 0.4687,0.5871 -0.0506,0.306 -0.1126,0.6085 -0.1852,0.9062l-6.2823 -2.0038 -4.2497 -0.7165c0.0116,-0.0728 0.0206,-0.1467 0.0222,-0.2224l4.2895 0.451 6.5754 -0.4608c0.0003,0.277 -0.0119,0.5506 -0.03,0.823zm-0.6055 3.1066c-0.0122,-0.003 -0.023,-0.009 -0.0358,-0.0122 -0.3338,-0.0816 -0.6712,0.1248 -0.7511,0.4596 -0.0706,0.2919 0.0774,0.5856 0.339,0.709 -0.131,0.293 -0.2693,0.5814 -0.4214,0.8615l-5.5776 -3.5387 -3.9229 -1.7679c0.0326,-0.0735 0.0558,-0.1518 0.0777,-0.2306l4.0514 1.4778 6.5018 1.1505c-0.0759,0.3025 -0.164,0.599 -0.2611,0.891zm-6.347 7.2237c-0.1813,-0.2922 -0.5668,-0.3804 -0.8583,-0.1974 -0.2558,0.16 -0.3553,0.4755 -0.252,0.7477 -0.2658,0.1007 -0.5371,0.1932 -0.8117,0.2759l-1.4789 -6.454 -1.5422 -4.0109c0.0708,-0.0268 0.1359,-0.0617 0.2022,-0.0973l1.7887 3.9142 3.7573 5.4535c-0.2536,0.1496 -0.5129,0.2906 -0.7778,0.4222 -0.0095,-0.0183 -0.0163,-0.0371 -0.0273,-0.0539zm-3.2714 1.0892c-0.1013,-0.3286 -0.4509,-0.5123 -0.7791,-0.4099 -0.2797,0.0864 -0.4523,0.3526 -0.4353,0.6318 -0.3182,0.0271 -0.64,0.0434 -0.9646,0.0454l0.3959 -6.6082 -0.3519 -4.2854c0.0985,-0.0082 0.1947,-0.0225 0.2875,-0.0465l0.7882 4.2276 2.3275 6.2052c-0.41,0.121 -0.8287,0.2204 -1.2554,0.2992 -0.0048,-0.0196 -0.0068,-0.0395 -0.0128,-0.0592zm-6.9654 -1.3025c-0.2927,-0.0638 -0.582,0.0887 -0.7006,0.3516 -0.2266,-0.108 -0.4486,-0.2248 -0.6681,-0.3464l3.578 -5.5672 1.7885 -3.9073c0.0728,0.0343 0.1494,0.06 0.2282,0.0834l-1.5022 4.0319 -1.1993 6.5203c-0.366,-0.0958 -0.7263,-0.2084 -1.0788,-0.3355 0.0113,-0.029 0.0224,-0.0582 0.0295,-0.0896 0.0743,-0.3352 -0.1392,-0.668 -0.4752,-0.7412zm-6.295 -6.3268c-0.1629,-0.2478 -0.4728,-0.3408 -0.7398,-0.2401 -0.0974,-0.2618 -0.1861,-0.5269 -0.2662,-0.796l6.4287 -1.4802 4.0179 -1.5499c0.027,0.0734 0.0609,0.1421 0.0976,0.2104l-3.9086 1.8155 -5.4194 3.7841c-0.1631,-0.2753 -0.3165,-0.5565 -0.4585,-0.8451 0.0239,-0.0115 0.0472,-0.0215 0.0691,-0.0359 0.2881,-0.1878 0.3679,-0.5747 0.1792,-0.8628zm-1.4855 -5.6475c0.0301,0.0024 0.0606,0.0051 0.0925,0.0031 0.3432,-0.021 0.6037,-0.3183 0.5815,-0.6617 -0.0191,-0.2915 -0.2372,-0.5225 -0.5127,-0.5714 0.0472,-0.2622 0.101,-0.5214 0.1651,-0.7772l6.2663 1.999 4.2528 0.7172c-0.0122,0.0722 -0.0186,0.1467 -0.0219,0.2226l-4.2926 -0.4516 -6.5741 0.4607c0.0021,-0.3167 0.0183,-0.63 0.0431,-0.9407zm0.6437 -3.0713c0.0291,0.01 0.0576,0.0208 0.0892,0.0268 0.3372,0.0675 0.6652,-0.1532 0.7311,-0.4908 0.0565,-0.2899 -0.0976,-0.5714 -0.3562,-0.6873 0.1195,-0.2596 0.246,-0.5154 0.3834,-0.7651l5.5471 3.5193 3.9366 1.7742c-0.0343,0.0733 -0.0597,0.1498 -0.0832,0.2282l-4.0596 -1.4813 -6.4852 -1.1478c0.0848,-0.3318 0.1863,-0.6563 0.2968,-0.9762zm6.3696 -7.0481c0.1939,0.2839 0.5826,0.3554 0.8657,0.1607 0.2465,-0.1696 0.3335,-0.4865 0.2227,-0.7526 0.2542,-0.0947 0.512,-0.181 0.7745,-0.259l1.4631 6.386 1.5524 4.0375c-0.0699,0.0267 -0.1354,0.0599 -0.2007,0.0949l-1.8002 -3.9394 -3.7221 -5.4013c0.258,-0.1505 0.5207,-0.2933 0.79,-0.426 0.0152,0.0339 0.0325,0.0675 0.0546,0.0992zm-6.8458 13.4317c0.0272,-0.0055 0.0553,-0.0093 0.0823,-0.0191 0.3264,-0.1082 0.5027,-0.4618 0.393,-0.7884 -0.0925,-0.2769 -0.3614,-0.4442 -0.6402,-0.4216 -0.029,-0.3474 -0.0469,-0.6982 -0.0475,-1.0536l6.5725 0.4191 4.2998 -0.3363c0.0068,0.1011 0.0205,0.1991 0.0446,0.2947l-4.2382 0.7938 -6.1788 2.3253c-0.1149,-0.3974 -0.2116,-0.8019 -0.2875,-1.2139zm11.8957 -3.912l-0.7938 -4.2581 -2.3028 -6.1392c0.3508,-0.1022 0.7068,-0.191 1.0695,-0.2625 0.0057,0.0377 0.0148,0.076 0.0281,0.1138 0.1146,0.3233 0.4728,0.4919 0.7959,0.3758 0.2821,-0.101 0.4466,-0.3844 0.4072,-0.6701 0.3684,-0.0354 0.7411,-0.0545 1.1175,-0.0569l-0.3913 6.5353 0.3543 4.3159c-0.0974,0.0081 -0.1928,0.0217 -0.2846,0.046zm1.9931 -10.2489c0.2866,0 0.5254,-0.1945 0.598,-0.4583 0.3011,0.0527 0.5988,0.1133 0.892,0.1877l-2.0328 6.2285 -0.7483 4.2614c-0.0781,-0.0141 -0.1573,-0.0219 -0.239,-0.0246l0.4357 -4.3074 -0.4826 -6.5379c0.3213,0 0.6393,0.0164 0.9546,0.0398 0.0073,0.3384 0.2824,0.6108 0.6224,0.6108zm2.974 0.7958c0.2784,0.0736 0.5606,-0.0545 0.6966,-0.2926 0.266,0.1233 0.5271,0.2528 0.7826,0.3934l-3.5443 5.5146 -1.7993 3.9321c-0.0726,-0.0332 -0.1493,-0.0575 -0.2265,-0.0803l1.5116 -4.0593 1.187 -6.4513c0.3213,0.0836 0.6371,0.1821 0.948,0.2903 -0.083,0.3293 0.1144,0.6663 0.4443,0.7531zm2.6723 1.5294c0.2514,0.1425 0.5583,0.0903 0.7513,-0.1067 0.2919,0.2406 0.5719,0.4962 0.8408,0.7624l-4.9296 4.326 -2.8153 3.2848c-0.0715,-0.0606 -0.146,-0.1152 -0.2268,-0.1633l2.4882 -3.5431 2.7799 -5.9417c0.2987,0.1676 0.592,0.3455 0.8758,0.5362 -0.1668,0.299 -0.0624,0.6767 0.2357,0.8454zm2.1932 2.1602c0.2076,0.2029 0.518,0.2299 0.7546,0.0876 0.1871,0.26 0.3669,0.5256 0.5335,0.8l-5.8383 3.0095 -3.5217 2.502c-0.0434,-0.06 -0.0905,-0.1178 -0.1418,-0.172l3.3643 -2.7168 4.3143 -4.9494c0.1801,0.1816 0.3532,0.3702 0.5229,0.5625 -0.2374,0.2461 -0.2323,0.6378 0.0122,0.8766zm1.5698 2.6495c0.1488,0.2509 0.4466,0.3567 0.7137,0.2758 0.1011,0.2648 0.195,0.5331 0.2778,0.8063l-6.4091 1.4754 -4.0264 1.5535c-0.0287,-0.0726 -0.065,-0.1406 -0.1033,-0.2076l3.9223 -1.8219 5.39 -3.7629c0.1614,0.2691 0.3109,0.5455 0.4521,0.8272 -0.0009,0.0007 -0.0011,0.0007 -0.0018,0.0009 -0.2958,0.1753 -0.3923,0.5583 -0.2153,0.8533zm1.2933 2.2801c-0.0096,0.0025 -0.0182,0.0025 -0.0268,0.0049 -0.331,0.0945 -0.5221,0.4402 -0.4266,0.7705 0.0821,0.2857 0.3505,0.4658 0.6344,0.4493 0.037,0.3795 0.0569,0.7643 0.0589,1.1529l-6.571 -0.4189 -4.3021 0.3368c-0.0091,-0.101 -0.025,-0.1983 -0.0507,-0.2933l4.2468 -0.7955 6.1603 -2.318c0.108,0.3645 0.2013,0.7347 0.2768,1.1113zm-20.4112 -7.0636c0.0223,0.0261 0.0452,0.0518 0.0715,0.0746 0.26,0.2251 0.6541,0.1947 0.879,-0.0655 0.1902,-0.2224 0.1958,-0.5403 0.0325,-0.7689 0.2461,-0.1716 0.4986,-0.3348 0.7575,-0.4889l2.9662 5.8443 2.4809 3.5387c-0.0675,0.046 -0.1303,0.1004 -0.1899,0.1565l-2.7477 -3.3409 -4.9878 -4.2707c0.2363,-0.2363 0.484,-0.4618 0.7378,-0.6792zm-0.8022 0.7465l4.3696 4.8909 3.3076 2.7854c-0.06,0.0699 -0.1142,0.143 -0.1622,0.2215l-3.5528 -2.464 -5.9713 -2.7505c0.175,-0.3135 0.3611,-0.6201 0.5612,-0.9166 0.0277,0.0197 0.0566,0.0388 0.0885,0.0541 0.308,0.1511 0.6816,0.0215 0.8316,-0.2877 0.1295,-0.2673 0.0509,-0.5818 -0.173,-0.7593 0.2233,-0.2677 0.4567,-0.5253 0.7008,-0.7738zm-0.6484 16.8353c0.0278,-0.0228 0.0551,-0.0456 0.0792,-0.0726 0.2302,-0.2547 0.2091,-0.6497 -0.0476,-0.8799 -0.224,-0.2007 -0.5528,-0.2102 -0.7863,-0.0378 -0.1402,-0.2049 -0.2752,-0.4142 -0.4039,-0.6276l5.8713 -3.0263 3.5053 -2.4902c0.0427,0.0613 0.0918,0.1175 0.1425,0.1726l-3.349 2.7046 -4.3471 4.9876c-0.2309,-0.2347 -0.4524,-0.4783 -0.6644,-0.7304zm0.7245 0.793l4.9689 -4.3612 2.8002 -3.2665c0.071,0.0617 0.1452,0.1182 0.2259,0.1671l-2.4722 3.5212 -2.8062 5.9993c-0.3523,-0.1985 -0.6939,-0.414 -1.0244,-0.6449 0.0191,-0.0259 0.0378,-0.0522 0.0534,-0.0821 0.1577,-0.3059 0.036,-0.6818 -0.2704,-0.8378 -0.266,-0.1365 -0.5827,-0.0631 -0.7648,0.1584 -0.2443,-0.2099 -0.4827,-0.4259 -0.7104,-0.6535zm7.8098 3.6225c0.0013,-0.0219 0.0047,-0.0429 0.0035,-0.0655 -0.0135,-0.343 -0.3043,-0.6101 -0.6486,-0.5948 -0.2915,0.0122 -0.5263,0.2237 -0.5814,0.4979 -0.2759,-0.051 -0.5492,-0.1079 -0.8181,-0.1762l2.0554 -6.2955 0.7419 -4.2309c0.0791,0.0142 0.1603,0.022 0.2423,0.0241l-0.4328 4.2772 0.4877 6.6106c-0.0011,0 -0.002,0 -0.0031,0 -0.3526,-0.0003 -0.7011,-0.0187 -1.0468,-0.0469zm9.2495 -3.0187c-0.0184,-0.0228 -0.0356,-0.0456 -0.0575,-0.0659 -0.2502,-0.2361 -0.6455,-0.2226 -0.8805,0.0288 -0.2116,0.2255 -0.2213,0.5658 -0.0381,0.8035 -0.2629,0.1859 -0.5315,0.3638 -0.8082,0.5295l-2.9954 -5.901 -2.4671 -3.518c0.0677,-0.0483 0.1321,-0.1014 0.1921,-0.1584l2.7316 3.3227 5.0258 4.3032c-0.2253,0.2277 -0.4608,0.4456 -0.7027,0.6556zm0.7624 -0.7182l-4.403 -4.9284 -3.2922 -2.7726c0.0587,-0.0706 0.1122,-0.1452 0.1591,-0.2257l3.5406 2.455 6.0041 2.7659c-0.1839,0.3346 -0.3824,0.6606 -0.5955,0.9755 -0.0196,-0.0147 -0.0396,-0.0303 -0.0624,-0.0425 -0.3018,-0.164 -0.6802,-0.0507 -0.8438,0.2527 -0.1456,0.2693 -0.0717,0.5973 0.1604,0.7816 -0.2119,0.2551 -0.4356,0.5008 -0.6673,0.7385z"/>
   <path id="_586484888" class="fil0" d="M13.6951 20.0912c0.0353,-0.1305 0.0552,-0.2659 0.0552,-0.4049 0,-1.0427 -1.0511,-1.8881 -2.3485,-1.8881 -0.7356,0 -1.3921,0.2722 -1.8225,0.698 -0.4515,-0.6464 -1.3116,-1.0835 -2.2997,-1.0835 -1.28,0 -2.3466,0.7336 -2.5856,1.7064 -0.3025,-0.0814 -0.625,-0.1264 -0.9615,-0.1264 -1.6674,0 -3.0197,1.087 -3.0197,2.4276 0,1.1994 1.0827,2.195 2.5046,2.3917 -0.0076,0.0624 -0.0117,0.1257 -0.0117,0.1899 0,1.0642 1.0728,1.9267 2.3965,1.9267 1.0063,0 1.8664,-0.499 2.2216,-1.2058 0.4269,0.4732 1.118,0.782 1.9004,0.782 0.9219,0 1.717,-0.4277 2.1018,-1.0487 0.2461,0.0553 0.5059,0.0854 0.7743,0.0854 1.5889,0 2.8762,-1.035 2.8762,-2.3121 0,-0.9651 -0.7361,-1.7918 -1.7814,-2.1382z"/>
   <path id="_586485104" class="fil1" d="M5.6022 26.0395c-1.3824,0 -2.5072,-0.9139 -2.5072,-2.0374 0,-0.0323 0.0009,-0.0644 0.0029,-0.0962 -1.4524,-0.2415 -2.4958,-1.2731 -2.4958,-2.4853 0,-1.3997 1.4043,-2.5383 3.1304,-2.5383 0.2996,0 0.5964,0.0347 0.884,0.1032 0.3043,-0.9817 1.4032,-1.6832 2.6633,-1.6832 0.9381,0 1.8119,0.3915 2.3145,1.0288 0.4656,-0.4103 1.1167,-0.6433 1.8078,-0.6433 1.3561,0 2.4591,0.8967 2.4591,1.9987 0,0.1096 -0.0119,0.2213 -0.0352,0.3333 1.0735,0.3908 1.7611,1.2492 1.7611,2.2098 0,1.3359 -1.3397,2.4229 -2.9868,2.4229 -0.2432,0 -0.4862,-0.0241 -0.7229,-0.0722 -0.4331,0.6407 -1.2499,1.0352 -2.1529,1.0352 -0.7217,0 -1.411,-0.2627 -1.8761,-0.7088 -0.421,0.6926 -1.284,1.1328 -2.2462,1.1328zm-1.8697 -6.9361c-1.6039,0 -2.9091,1.0394 -2.9091,2.3169 0,1.1293 1.0133,2.089 2.409,2.2821l0.1073 0.0149 -0.0128 0.1078c-0.0066,0.0582 -0.0108,0.1172 -0.0108,0.177 0,1.0013 1.0254,1.8161 2.2859,1.8161 0.9402,0 1.7732,-0.4494 2.1223,-1.145l0.0731 -0.1445 0.1082 0.1202c0.4214,0.4667 1.1012,0.7455 1.8185,0.7455 0.8577,0 1.6272,-0.3817 2.0076,-0.9963l0.0415 -0.067 0.0768 0.0172c0.2446,0.0549 0.4971,0.0828 0.7502,0.0828 1.5248,0 2.7654,-0.9876 2.7654,-2.2016 0,-0.892 -0.6691,-1.6902 -1.7054,-2.0332l-0.0991 -0.0328 0.0272 -0.1011c0.034,-0.1268 0.0513,-0.2534 0.0513,-0.3762 0,-0.9801 -1.004,-1.7774 -2.2379,-1.7774 -0.6807,0 -1.3167,0.2427 -1.7448,0.6661l-0.0935 0.0922 -0.0752 -0.1075c-0.4464,-0.6391 -1.2928,-1.0361 -2.2087,-1.0361 -1.205,0 -2.2472,0.6822 -2.4783,1.622l-0.0272 0.11 -0.109 -0.0294c-0.3014,-0.0816 -0.6154,-0.1227 -0.9325,-0.1227z"/>
   <path id="_586485008" class="fil0" d="M28.7787 4.1206c0.0345,-0.1272 0.054,-0.2587 0.054,-0.3941 0,-1.0146 -1.0231,-1.8374 -2.2853,-1.8374 -0.7159,0 -1.3545,0.2652 -1.7736,0.6792 -0.439,-0.6289 -1.2764,-1.0543 -2.2378,-1.0543 -1.2454,0 -2.2834,0.7139 -2.516,1.6604 -0.2941,-0.0792 -0.6082,-0.123 -0.9354,-0.123 -1.6225,0 -2.9385,1.0577 -2.9385,2.3622 0,1.1671 1.0533,2.1359 2.4371,2.3273 -0.0073,0.0606 -0.0116,0.1224 -0.0116,0.1848 0,1.0354 1.0441,1.875 2.332,1.875 0.9792,0 1.8161,-0.4858 2.1618,-1.1736 0.4152,0.4603 1.0879,0.7608 1.8491,0.7608 0.8974,0 1.671,-0.416 2.0452,-1.0204 0.2396,0.0538 0.4924,0.0832 0.7533,0.0832 1.5459,0 2.7986,-1.0073 2.7986,-2.2498 0.0005,-0.9389 -0.7157,-1.7435 -1.7329,-2.0803z"/>
   <path id="_586484312" class="fil1" d="M20.9039 9.9116c-1.3469,0 -2.4428,-0.8907 -2.4428,-1.9857 0,-0.0305 0.001,-0.0609 0.0028,-0.0911 -1.4134,-0.2359 -2.4282,-1.2406 -2.4282,-2.4209 0,-1.3637 1.3678,-2.4729 3.0489,-2.4729 0.2905,0 0.5784,0.0334 0.8579,0.0997 0.2974,-0.955 1.3672,-1.6371 2.5935,-1.6371 0.9129,0 1.7629,0.3802 2.2528,0.9998 0.4533,-0.3984 1.0866,-0.6247 1.7586,-0.6247 1.3211,0 2.3959,0.8739 2.3959,1.9479 0,0.1062 -0.0113,0.2142 -0.0337,0.3224 1.0443,0.381 1.713,1.2168 1.713,2.1525 0,1.3016 -1.3049,2.3605 -2.9093,2.3605 -0.2361,0 -0.4721,-0.0234 -0.702,-0.0697 -0.4222,0.6232 -1.2173,1.0071 -2.0965,1.0071 -0.7017,0 -1.372,-0.2547 -1.825,-0.6878 -0.4107,0.6727 -1.2504,1.1 -2.1859,1.1zm-1.8193 -6.7492c-1.5593,0 -2.8276,1.01 -2.8276,2.2516 0,1.0972 0.9847,2.0299 2.3415,2.2178l0.1078 0.0149 -0.0133 0.1078c-0.0069,0.0564 -0.0109,0.1137 -0.0109,0.1715 0,0.9728 0.9967,1.7643 2.2216,1.7643 0.9135,0 1.7232,-0.4368 2.0628,-1.1124l0.0726 -0.1446 0.1082 0.1202c0.4095,0.4537 1.07,0.7243 1.7673,0.7243 0.8336,0 1.5811,-0.3708 1.9509,-0.9682l0.0414 -0.0668 0.0771 0.0171c0.2378,0.0533 0.4833,0.0805 0.7291,0.0805 1.4822,0 2.688,-0.9595 2.688,-2.1392 0,-0.8668 -0.6506,-1.6424 -1.6572,-1.9757l-0.0994 -0.0327 0.0274 -0.1012c0.033,-0.1226 0.0501,-0.2454 0.0501,-0.3651 0,-0.952 -0.9755,-1.7266 -2.1747,-1.7266 -0.6614,0 -1.2797,0.2359 -1.6958,0.6471l-0.0934 0.0922 -0.0752 -0.1075c-0.4338,-0.621 -1.2565,-1.0069 -2.147,-1.0069 -1.1713,0 -2.1844,0.6627 -2.4088,1.576l-0.027 0.11 -0.1091 -0.0294c-0.2934,-0.079 -0.5984,-0.119 -0.9064,-0.119z"/>
   <path id="_586484096" class="fil2" d="M20.6756 3.7624c-1.1798,0 -2.1398,0.9599 -2.1398,2.1397 0,1.1798 0.96,2.1398 2.1398,2.1398 1.1798,0 2.1398,-0.96 2.1398,-2.1398 0,-1.1798 -0.96,-2.1397 -2.1398,-2.1397zm0.1359 0.6951l0.5502 -0.2958c0.3046,0.1207 0.5705,0.3183 0.7727,0.5697l-0.131 0.605 -0.4197 0.2057 -0.7722 -0.5624 0 -0.5222zm-0.8174 -0.2974l0.5502 0.2969 0 0.5226 -0.7717 0.5625 -0.4218 -0.2059 -0.131 -0.6088c0.2027,-0.2509 0.4691,-0.4474 0.7743,-0.5673zm-0.8618 2.7996c-0.1747,-0.2541 -0.2883,-0.5529 -0.3196,-0.8757l0.4528 -0.4919 0.413 0.2019 0.3111 0.8835 -0.263 0.3151 -0.5943 -0.0329zm2.0202 0.7508c-0.1527,0.0404 -0.3119,0.0639 -0.4769,0.0639 -0.1995,0 -0.3916,-0.0321 -0.5721,-0.0901l-0.1682 -0.5237 0.2682 -0.3223 0.9453 0 0.2634 0.3118 -0.2597 0.5604zm0.4684 -0.727l-0.2587 -0.3063 0.3154 -0.8831 0.4111 -0.2014 0.4501 0.4916c-0.027,0.2784 -0.1166,0.5381 -0.2527,0.7679l-0.6652 0.1313z"/>
   <path id="_586484000" class="fil2" d="M27.7942 3.6725l-3.603 0c-0.1882,0 -0.3406,0.1525 -0.3406,0.3404l0 3.4075c0,0.1879 0.1524,0.3405 0.3406,0.3405l3.603 0c0.1876,0 0.3406,-0.1526 0.3406,-0.3405l0 -3.4075c0,-0.1879 -0.1532,-0.3404 -0.3406,-0.3404zm-2.9645 1.2958c-0.2434,0 -0.4411,-0.1974 -0.4411,-0.4411 0,-0.243 0.1977,-0.4408 0.4411,-0.4408 0.2435,0 0.4408,0.1978 0.4408,0.4408 0,0.2437 -0.1973,0.4411 -0.4408,0.4411zm2.3462 1.1892c-0.2436,0 -0.441,-0.1971 -0.441,-0.4408 0,-0.2433 0.1974,-0.4408 0.441,-0.4408 0.2433,0 0.4411,0.1975 0.4411,0.4408 0.0002,0.2437 -0.1978,0.4408 -0.4411,0.4408zm-2.3399 0c-0.2435,0 -0.4408,-0.1971 -0.4408,-0.4408 0,-0.2433 0.1973,-0.4408 0.4408,-0.4408 0.2435,0 0.4408,0.1975 0.4408,0.4408 0,0.2437 -0.1973,0.4408 -0.4408,0.4408zm2.3742 1.1664c-0.2432,0 -0.441,-0.1975 -0.441,-0.4408 0,-0.2434 0.1978,-0.4408 0.441,-0.4408 0.2435,0 0.441,0.1974 0.441,0.4408 0,0.2433 -0.1975,0.4408 -0.441,0.4408zm-0.0252 -2.348c-0.2434,0 -0.4409,-0.1974 -0.4409,-0.4404 0,-0.2434 0.1975,-0.4408 0.4409,-0.4408 0.2433,0 0.4408,0.1974 0.4408,0.4408 0,0.2428 -0.1975,0.4404 -0.4408,0.4404zm-2.3447 2.338c-0.2433,0 -0.4408,-0.1975 -0.4408,-0.4408 0,-0.2437 0.1975,-0.4408 0.4408,-0.4408 0.2435,0 0.4411,0.1971 0.4411,0.4408 0.0002,0.2433 -0.1974,0.4408 -0.4411,0.4408z"/>
   <path id="_586484168" class="fil2" d="M7.2221 20.8496c-0.1303,-0.1303 -0.3076,-0.1855 -0.4778,-0.1658 0.0025,-0.0223 0.004,-0.0447 0.004,-0.0675 0,-0.1551 -0.0604,-0.301 -0.1701,-0.4107 -0.1097,-0.1097 -0.2556,-0.1701 -0.4107,-0.1701 -0.0228,0 -0.0452,0.0015 -0.0675,0.004 0.0197,-0.1702 -0.0355,-0.3475 -0.1658,-0.4778 -0.1097,-0.1097 -0.2556,-0.1702 -0.4107,-0.1702 -0.1552,0 -0.301,0.0605 -0.4107,0.1702l-0.014 0.0139 -1.0478 2.0413 -0.2345 0.2345c-0.149,0.149 -0.2311,0.3471 -0.2311,0.5579 0,0.2107 0.0821,0.4089 0.2311,0.5579 0.1491,0.149 0.3472,0.2311 0.5579,0.2311 0.2108,0 0.4089,-0.0821 0.558,-0.2311l0.2344 -0.2345 2.0414 -1.0478 0.0139 -0.0139c0.2265,-0.2265 0.2265,-0.595 0,-0.8214zm-0.8214 -0.4665c0.0623,0.0623 0.0966,0.1451 0.0966,0.2332 0,0.0861 -0.0327,0.1671 -0.0923,0.2289l-0.0667 0.0538 -0.4535 -0.4535 0.0538 -0.0667c0.0618,-0.0596 0.1428,-0.0923 0.2288,-0.0923 0.0881,0 0.171,0.0343 0.2333,0.0966zm-1.2695 0.5971l-0.2582 0.3202 -0.2493 -0.2494 0.1961 -0.3822 0.3114 0.3114zm-0.191 -0.5459l0.1962 -0.3822 0.4114 0.4114 -0.2581 0.3202 -0.3495 -0.3494zm-0.3053 1.5612l0.2582 -0.3201 0.2153 0.2153 -0.3202 0.2581 -0.1533 -0.1533zm0.4166 -0.5166l0.2582 -0.3202 0.3154 0.3154 -0.3202 0.2581 -0.2534 -0.2533zm-0.3369 0.018l-0.2582 0.3201 -0.1493 -0.1493 0.1962 -0.3822 0.2113 0.2114zm0.2521 0.8304l0.3202 -0.2581 0.2113 0.2113 -0.3821 0.1962 -0.1494 -0.1494zm0.5167 -0.4166l0.3202 -0.2582 0.3114 0.3114 -0.3822 0.1962 -0.2494 -0.2494zm0.5167 -0.4166l0.3201 -0.2582 0.4115 0.4115 -0.3822 0.1961 -0.3494 -0.3494zm-0.1785 -0.1785l-0.3534 -0.3534 0.2581 -0.3202 0.4155 0.4154 -0.3202 0.2582zm-0.2981 -1.6731c0.0881,0 0.1709,0.0343 0.2332,0.0967 0.1286,0.1285 0.1286,0.3378 0.0001,0.4664 -0.0001,0 -0.0048,0.0048 -0.0048,0.0048l-0.0457 0.0566 -0.4495 -0.4495 0.0467 -0.0908c0.0605,-0.0544 0.138,-0.0842 0.22,-0.0842zm1.5336 1.8378l-0.0908 0.0467 -0.4495 -0.4495 0.0514 -0.0415 0.0052 -0.0042 0.0048 -0.0047c0.1286,-0.1286 0.3378,-0.1286 0.4664,0 0.1243,0.1242 0.1285,0.3239 0.0125,0.4532z"/>
   <g>
    <path id="_586483808" class="fil2" d="M12.0904 19.901c0.0006,0 0.0013,0 0.0019,0 0.0201,0 0.0392,0.0085 0.0527,0.0234l0.0702 0.0624c0.0192,0.0166 0.0303,0.0408 0.0303,0.0662 0,0.0217 -0.008,0.0426 -0.0225,0.0586l-0.6942 0.8034 0.1326 0.1092c0.0366,0.0309 0.0578,0.0765 0.0578,0.1245 0,0.0405 -0.015,0.0795 -0.0422,0.1095l-1.6146 1.8563c-0.0296,0.0347 -0.0729,0.0547 -0.1186,0.0547 -0.002,0 -0.0041,0 -0.0062,-0.0001 -0.0395,-0.0011 -0.0778,-0.0148 -0.1091,-0.039l-0.468 -0.3978c-0.0367,-0.031 -0.0579,-0.0766 -0.0579,-0.1245 0,-0.0405 0.0151,-0.0795 0.0422,-0.1095l0.1638 -0.1872 0.7254 -0.8423 0.7254 -0.8268c0.0296,-0.0347 0.073,-0.0547 0.1187,-0.0547 0.002,0 0.0041,0 0.0061,0.0001 0.0396,0.001 0.0779,0.0147 0.1092,0.039l0.1326 0.1092 0.6942 -0.8034c0.02,-0.0167 0.0444,-0.0275 0.0702,-0.0312m0 0l0 0 0 0z"/>
    <path id="_586484480" class="fil2" d="M12.0202 22.5841c0,-0.2326 -0.1886,-0.4211 -0.4212,-0.4211 -0.2326,0 -0.4212,0.1885 -0.4212,0.4211 0,0.2326 0.1886,0.4212 0.4212,0.4212 0.2326,0 0.4212,-0.1886 0.4212,-0.4212z"/>
    <polygon id="_586484144" class="fil2" points="10.546,23.6293 10.8814,23.6293 10.8814,22.5607 10.546,22.9429 "/>
    <path id="_586484264" class="fil2" d="M9.7816 23.4031l0 0.2262 0.3354 0 0 -0.2418c-0.0568,0.0307 -0.1205,0.0468 -0.1852,0.0468 -0.0006,0 -0.0013,0 -0.0019,0 -0.0499,-0.0073 -0.0996,-0.0179 -0.1482,-0.0312l-0.0001 0z"/>
    <path id="_586484240" class="fil2" d="M9.0562 22.6387c-0.0012,-0.0132 -0.0019,-0.0265 -0.0019,-0.0398 0,-0.1002 0.0369,-0.1972 0.1034,-0.2722l0.2027 -0.2339 0 -2.5272c0.0002,-0.0023 0.0002,-0.0047 0.0002,-0.007 0,-0.0734 -0.0593,-0.133 -0.1327,-0.1334l0.1169 0c0.0168,0.0012 0.0301,0.0145 0.0313,0.0312l0 0.039c0.0011,0.0168 0.0144,0.0301 0.0312,0.0312l0.3197 0c0.0168,-0.0011 0.0301,-0.0144 0.0313,-0.0312l-0.0001 -0.039c0.0012,-0.0167 0.0145,-0.03 0.0313,-0.0312l0.1325 0c-0.074,0.0029 -0.1326,0.0638 -0.1326,0.138 0,0.0008 0.0001,0.0016 0.0001,0.0024l-0.0001 2.0358 0.3354 -0.3822 0 -1.6536c0.0002,-0.0023 0.0002,-0.0047 0.0002,-0.007 0,-0.0734 -0.0593,-0.133 -0.1327,-0.1334l0.1325 0c0.0168,0.0012 0.0301,0.0145 0.0312,0.0312l0 0.039c0.0012,0.0168 0.0145,0.0301 0.0313,0.0312l0.3197 0c0.0168,-0.0011 0.0301,-0.0144 0.0312,-0.0312l0 -0.039c0.0012,-0.0167 0.0145,-0.03 0.0313,-0.0312l0.1169 0c-0.074,0.0029 -0.1326,0.0638 -0.1326,0.138 0,0.0008 0,0.0016 0,0.0024l0 1.1622 0.2184 -0.2496c0.0317,-0.0394 0.0717,-0.0714 0.117,-0.0936l0 -0.819c0.0001,-0.0023 0.0002,-0.0047 0.0002,-0.007 0,-0.0734 -0.0594,-0.133 -0.1328,-0.1334l-0.0468 0c0.0167,-0.0011 0.0301,-0.0144 0.0312,-0.0312l0 -0.0624c-0.0011,-0.0167 -0.0145,-0.03 -0.0312,-0.0312l-0.1404 0c-0.0167,-0.0011 -0.03,-0.0144 -0.0311,-0.0312l-0.0001 -0.0312c-0.0078,-0.0156 -0.0156,-0.0312 -0.0312,-0.0312l-0.3198 0c-0.0167,0.0012 -0.03,0.0145 -0.0311,0.0312l-0.0001 0.039c-0.0011,0.0168 -0.0144,0.0301 -0.0312,0.0312l-0.1404 0c-0.0167,0.0012 -0.03,0.0145 -0.0311,0.0312 -0.0012,-0.0167 -0.0145,-0.03 -0.0312,-0.0312l-0.1405 0c-0.0167,-0.0011 -0.03,-0.0144 -0.0311,-0.0312l-0.0001 -0.039c-0.0011,-0.0167 -0.0144,-0.03 -0.0311,-0.0312l-0.3199 0c-0.0167,0.0012 -0.03,0.0145 -0.0311,0.0312l-0.0001 0.039c-0.0011,0.0168 -0.0144,0.0301 -0.0311,0.0312l-0.1405 0c-0.0167,0.0012 -0.03,0.0145 -0.0311,0.0312l0 0.0624c0.0011,0.0168 0.0144,0.0301 0.0312,0.0312l-0.0469 0c-0.074,0.0029 -0.1325,0.0638 -0.1325,0.138 0,0.0008 0,0.0016 0,0.0024l-0.0001 4.0637 0.3432 0 0 -0.5616 -0.1638 -0.1404c-0.0815,-0.0782 -0.1316,-0.1838 -0.1403,-0.2964l-0.0001 0zm0.897 -3.2369c0.0012,0.0168 0.0145,0.0301 0.0313,0.0312l-0.0625 0c0.0156,-0.0078 0.0312,-0.0156 0.0312,-0.0312z"/>
   </g>
   <g>
    <path id="_586483760" class="fil0" d="M36.8731 9.6811l0 11.0892 0.2733 0.1952c0.0088,0.0029 2.7035,0.021 3.1237,-0.039 0.0173,-0.2078 0.0394,-0.3569 0.0391,-0.6247l-0.0032 -4.4544 0.0813 -0.2703c0.0038,0.1719 0.2143,0.4982 0.3039,0.6722l0.2568 0.4851c0.0374,0.0719 0.0516,0.1126 0.0889,0.1844 0.0041,0.0078 0.0096,0.0177 0.0137,0.0254 0.0041,0.0077 0.0098,0.0175 0.0139,0.0251l0.0546 0.1016c0.0487,0.0915 0.0483,0.0882 0.0928,0.1806 0.0281,0.0584 0.0479,0.0957 0.0785,0.1557 0.0322,0.0628 0.0533,0.1124 0.0899,0.1835l1.7012 3.3358c0.6092,0.0871 2.5396,0.039 3.2799,0.039l0.1952 -0.1952 0 -11.2276 -2.4209 -0.0178c-1.0194,0 -1.0153,-0.2524 -1.0152,0.7419 0.0001,0.6458 -0.0224,1.6376 0.0081,2.2525 0.0319,0.6389 -0.0081,2.2854 -0.0081,3.0188 -0.0055,-0.0079 -0.0118,-0.0309 -0.0138,-0.0251l-0.0544 -0.102c-0.0317,-0.0593 -0.0439,-0.0761 -0.068,-0.1272l-0.4659 -1.0178c-0.0038,-0.0085 -0.0079,-0.019 -0.0116,-0.0275l-0.0722 -0.1621c-0.0316,-0.0652 -0.0327,-0.074 -0.0611,-0.1341l-0.107 -0.1663c-0.0983,-0.1431 -0.0952,-0.2347 -0.1568,-0.3898l-0.635 -1.3565c-0.0448,-0.0893 -0.074,-0.1807 -0.1169,-0.2735 -0.0433,-0.0934 -0.0831,-0.166 -0.1303,-0.2602 -0.0542,-0.1084 -0.0923,-0.2052 -0.1315,-0.2981l-0.0752 -0.159c-0.0039,-0.0081 -0.0092,-0.0179 -0.0129,-0.0261 -0.0039,-0.0082 -0.0086,-0.0184 -0.0124,-0.0268l-0.335 -0.7192c-0.4537,-0.8615 -0.1247,-0.7514 -0.8954,-0.7412 -0.4017,0.0054 -2.0021,0.0171 -2.358,-0.03 -0.2006,-0.0266 -0.534,0.0096 -0.534,0.1855zm22.8813 11.2836c0.1831,0 0.3624,0.0025 0.5464,0.0011l1.8762 0.0015c0.526,0.0047 0.4278,-0.1995 0.4278,-0.8217 0,-2.7286 -0.0001,-5.4612 -0.0002,-8.2 -0.0028,-0.4768 -0.0041,-0.4564 0.2259,-0.555 0.0785,-0.0337 0.1401,-0.0712 0.2145,-0.137 0.1394,-0.1232 0.2092,-0.2491 0.2243,-0.4819 0.0323,-0.4985 -0.2649,-0.6383 -0.6255,-0.7392 -0.123,-0.5284 0.0685,-0.4436 -0.5857,-0.5467l0 -0.7418c0.0502,-0.0265 0.0802,-0.05 0.1199,-0.0754 0.1905,-0.1226 0.1741,-0.1095 0.3598,-0.304 0.1486,-0.1557 0.2437,-0.3894 0.308,-0.59 0.1369,-0.4263 -0.0516,-0.8077 -0.2546,-1.1646l-0.1045 -0.1688c-0.111,-0.1401 -0.1629,-0.09 -0.3159,-0.2308l-0.1676 -0.1447c-0.282,-0.2018 -0.4815,-0.3532 -0.6871,-0.6405 -0.2446,-0.3416 -0.3302,-0.5128 -0.4294,-0.9373 -0.1362,0.0998 -0.0315,0.1594 -0.2543,0.6046 -0.1856,0.3709 -0.3961,0.5806 -0.6988,0.8241l-0.2447 0.1848c-0.0513,0.0344 -0.0905,0.059 -0.1405,0.0938l-0.1315 0.1027c-0.0458,0.0377 -0.0931,0.0738 -0.128,0.1064l-0.1918 0.2376c-0.0404,0.0636 -0.0309,0.0535 -0.0695,0.1258l-0.0845 0.1498c-0.2108,0.4495 -0.0066,1.3316 0.4038,1.6093l0.2904 0.1781c0,0.4183 0.0207,0.3284 0,0.82 -0.4459,-0.1039 -0.3811,0.0293 -0.5077,0.4685 -0.2008,0.0964 -0.3397,0.0596 -0.5099,0.271 -0.0051,0.0064 -0.0121,0.0155 -0.017,0.0221 -0.1662,0.2234 -0.2089,0.4578 -0.0936,0.7177 0.1416,0.3192 0.3112,0.352 0.6205,0.473l0 9.3322c-0.0007,0.1092 0.0594,0.1526 0.1562,0.1561 0.0521,0 0.1041,0 0.1562,0l0 -0.0008 0.3072 0 0.0052 0.0008 0 -0.0008zm10.7769 -3.5134l-2.9676 0 0 -3.0456c0,-0.1166 0.1423,-0.632 0.1928,-0.7443 0.2007,-0.4453 0.6117,-0.8979 1.0572,-1.0516 0.3363,-0.1159 0.2942,-0.1531 0.8136,0.1228 0.1265,0.0672 0.3124,0.2137 0.4206,0.3213l0.1928 0.2367c0.0193,0.028 0.0314,0.0472 0.0468,0.0703l0.1312 0.2203c0.05,0.0953 0.0359,0.044 0.0736,0.1606 0.0209,0.0645 0.0255,0.1117 0.0486,0.1858 0.186,0.5968 0.1075,2.7455 0.1075,3.4066 0,0.09 -0.0271,0.1171 -0.1171,0.1171zm-19.0158 1.5619l0 -7.575c0.1581,0 0.5318,0.0881 0.6847,0.1353 0.1934,0.0598 0.3799,0.1798 0.543,0.277 0.1175,0.0699 0.1311,0.0683 0.2325,0.1579l0.2351 0.2335c0.0057,0.0057 0.0139,0.0138 0.0196,0.0195 0.173,0.1722 0.1765,0.1666 0.3438,0.398l0.1107 0.1627c0.0046,0.007 0.0111,0.0164 0.0156,0.0234 0.0046,0.007 0.0109,0.0165 0.0155,0.0236 0.2397,0.3727 0.5399,1.1129 0.5949,1.5136 0.0836,0.6095 0.1013,1.35 -0.0676,1.9308 -0.0375,0.1289 -0.0273,0.2034 -0.0853,0.3442l-0.0694 0.2039c-0.0497,0.1645 -0.1511,0.345 -0.2367,0.5052l-0.2449 0.4189c-0.0591,0.0894 -0.1089,0.1426 -0.1724,0.218l-0.3015 0.3233c-0.1906,0.1799 -0.3692,0.3038 -0.5932,0.4221 -0.312,0.1648 -0.6324,0.2641 -1.0244,0.2641zm9.8789 -9.4883l-0.2734 0 0 -0.7809 0.4686 0 0 0.7418c-0.0876,0.0205 -0.0898,0.0391 -0.1952,0.0391zm-1.2105 0l0 -0.7809 0.4295 0 0 0.7418 -0.2343 0c-0.0615,0 -0.1479,0.0207 -0.1952,0.0391zm-12.0263 0.2343l0 11.1956 0.2732 0.0107c0.0077,0.0025 3.6138,0.0539 4.1912,-0.104 0.2574,-0.0703 0.655,-0.1433 0.8919,-0.2404 0.0894,-0.0366 -0.0097,-0.0023 0.0845,-0.0326 0.0815,-0.0262 0.0715,-0.0121 0.1518,-0.0435l0.2454 -0.106c0.4102,-0.1515 1.21,-0.6188 1.5508,-0.9092l1.0278 -1.0415 0.3715 -0.5657c0.1823,-0.3294 0.1987,-0.3939 0.3321,-0.7222 0.3404,-0.8379 0.4425,-2.218 0.2372,-3.0542 -0.0524,-0.2133 0.0096,-0.1623 -0.0979,-0.4488 -0.0724,-0.1928 -0.0245,-0.1645 -0.139,-0.4467l-0.0211 -0.0571c-0.1666,-0.4396 -0.4261,-0.8488 -0.6929,-1.2203 -0.1515,-0.2111 -0.1101,-0.1261 -0.2342,-0.2733 -0.1538,-0.1824 -0.2728,-0.3255 -0.4554,-0.4819 -0.135,-0.1156 -0.4126,-0.3512 -0.7003,-0.5491l-0.2123 -0.1392c-0.3832,-0.2364 -0.8144,-0.4414 -1.2351,-0.6001l-0.5321 -0.1707 -1.9134 -0.2341 -2.7358 -0.0419 -0.2678 0.0448 -0.1201 0.2314zm26.0831 3.7515l0 0.1922c-0.1119,1.2633 -0.7419,1.4237 -0.7419,1.9913 0,0.0673 0.199,0.3614 0.2552,0.4087 0.0795,0.0367 0.157,0.0299 0.2295,0.0829 0.0396,0.029 0.101,0.1095 0.101,0.1723l0 4.6428 -1.64 0.0108 -1.7961 -0.032 0 -0.9122 -0.0178 -0.6638 -3.049 0 -0.0179 0.7028 -0.039 0.8661 -3.358 0c-0.0568,-0.9624 -0.0391,-1.9715 -0.0391,-2.9356 0,-2.4392 -0.0365,-1.6384 0.4249,-1.996 0.0734,-0.0569 0.1999,-0.2419 0.1999,-0.3468 0,-0.2595 -0.3344,-0.6674 -0.4712,-0.8954 -0.161,-0.2686 -0.1782,-0.4086 -0.2576,-0.7185 -0.1749,-0.6822 0.1005,-1.4008 0.4683,-1.9655 0.4443,-0.682 1.6571,-1.5169 2.408,-1.6919 -0.09,-0.1876 0.0345,-0.4301 0.1923,-0.5496 0.0708,-0.0536 0.0514,-0.0371 0.1278,-0.0674l0.1415 -0.0536c0.0938,-0.0392 0.1923,-0.0731 0.2798,-0.1108 0.3433,-0.148 0.6921,-0.3431 0.8875,-0.6743 0.3468,-0.5879 0.4008,-1.2078 0.4961,-1.8858 0.0393,-0.2793 0.0616,-0.4021 0.0616,-0.7193l0.0391 0c0.0362,0.4729 0.051,0.9497 0.1538,1.408 0.3106,1.3849 0.4551,1.5072 1.6827,2.0268 0.289,0.1224 0.3501,0.2427 0.3501,0.626l0.817 0.3544c0.2585,0.1293 0.4802,0.2913 0.7164,0.4551l0.3837 0.3191c0.0057,0.0057 0.0136,0.0141 0.0193,0.0197 0.0056,0.0058 0.0137,0.014 0.0194,0.0197 0.0204,0.0206 0.0314,0.0318 0.0584,0.0587l0.0981 0.0971c0.1756,0.1749 0.3289,0.3838 0.4475,0.6068l0.1573 0.3503c0.0926,0.2113 0.1909,0.5293 0.2114,0.8069z"/>
    <path id="_586483136" class="fil0" d="M32.2157 21.0242c0.1831,0 0.3623,0.0025 0.5463,0.0012l1.8763 0.0014c0.5259,0.0048 0.4278,-0.1994 0.4278,-0.8217 0,-2.7286 -0.0001,-5.4612 -0.0002,-8.1999 -0.0028,-0.4768 -0.0041,-0.4564 0.2259,-0.5551 0.0785,-0.0337 0.1401,-0.0712 0.2145,-0.1369 0.1394,-0.1232 0.2091,-0.2492 0.2243,-0.482 0.0323,-0.4984 -0.2649,-0.6383 -0.6255,-0.7392 -0.1231,-0.5283 0.0685,-0.4436 -0.5857,-0.5466l0 -0.7419c0.0501,-0.0265 0.0802,-0.0499 0.1198,-0.0754 0.1906,-0.1225 0.1742,-0.1094 0.3599,-0.304 0.1486,-0.1557 0.2436,-0.3893 0.308,-0.59 0.1368,-0.4263 -0.0516,-0.8076 -0.2547,-1.1646l-0.1044 -0.1688c-0.111,-0.14 -0.1629,-0.09 -0.316,-0.2307l-0.1676 -0.1448c-0.282,-0.2018 -0.4814,-0.3532 -0.6871,-0.6405 -0.2445,-0.3415 -0.3302,-0.5127 -0.4293,-0.9373 -0.1363,0.0999 -0.0316,0.1595 -0.2544,0.6047 -0.1856,0.3708 -0.396,0.5805 -0.6987,0.824l-0.2447 0.1848c-0.0513,0.0344 -0.0905,0.059 -0.1405,0.0938l-0.1316 0.1028c-0.0458,0.0376 -0.093,0.0737 -0.1279,0.1063l-0.1918 0.2376c-0.0404,0.0636 -0.0309,0.0535 -0.0695,0.1258l-0.0845 0.1498c-0.2108,0.4495 -0.0067,1.3316 0.4037,1.6093l0.2904 0.1781c0,0.4184 0.0208,0.3285 0,0.82 -0.4459,-0.1038 -0.381,0.0294 -0.5076,0.4686 -0.2008,0.0963 -0.3397,0.0595 -0.51,0.271 -0.005,0.0063 -0.012,0.0155 -0.0169,0.022 -0.1662,0.2234 -0.2089,0.4578 -0.0936,0.7178 0.1416,0.3191 0.3112,0.3519 0.6205,0.4729l0 9.3322c-0.0008,0.1093 0.0594,0.1526 0.1562,0.1562 0.0521,0 0.1041,0 0.1562,0l0 -0.0009 0.3072 0 0.0052 0.0009 0 -0.0009zm1.6399 -11.4398l-0.2733 0 0 -0.7809 0.4686 0 0 0.7419c-0.0876,0.0204 -0.0898,0.039 -0.1953,0.039zm-1.2104 0l0 -0.7809 0.4295 0 0 0.7419 -0.2343 0c-0.0615,0 -0.148,0.0207 -0.1952,0.039z"/>
   </g>
   <path id="_586483640" class="fil3" d="M31.7031 22.4741l3.3186 0 0 0.8557 -2.0774 0 0 0.6374 1.9272 0 0 0.8175 -1.9272 0 0 0.7896 2.1381 0 0 0.908 -3.3793 0 0 -4.0082zm3.7703 0l1.3634 0 0.7112 1.2328 0.6887 -1.2328 1.3513 0 -1.2468 1.9411 1.3644 2.0671 -1.3915 0 -0.7904 -1.2879 -0.7932 1.2879 -1.3831 0 1.3831 -2.0886 -1.2571 -1.9196zm7.1084 2.3704l1.0854 0.3285c-0.0728,0.3042 -0.1876,0.558 -0.3444,0.7624 -0.1568,0.2044 -0.3518,0.3584 -0.5842,0.462 -0.2324,0.1045 -0.5282,0.1558 -0.8866,0.1558 -0.4358,0 -0.7923,-0.0634 -1.0676,-0.1894 -0.2762,-0.1269 -0.5151,-0.35 -0.7158,-0.6691 -0.1997,-0.3192 -0.3005,-0.727 -0.3005,-1.2245 0,-0.6635 0.1764,-1.174 0.5292,-1.5295 0.3527,-0.3565 0.852,-0.5348 1.4969,-0.5348 0.5049,0 0.9015,0.1018 1.1908,0.3061 0.2893,0.2044 0.5039,0.518 0.6439,0.9407l-1.0937 0.2436c-0.0383,-0.1222 -0.0784,-0.2118 -0.1204,-0.2688 -0.0691,-0.0942 -0.154,-0.167 -0.2539,-0.2183 -0.1007,-0.0514 -0.2127,-0.0766 -0.3368,-0.0766 -0.28,0 -0.4956,0.113 -0.6449,0.3388 -0.1129,0.168 -0.1699,0.4312 -0.1699,0.7904 0,0.4452 0.0682,0.7494 0.2026,0.9146 0.1353,0.1652 0.3247,0.2473 0.5683,0.2473 0.237,0 0.4162,-0.0662 0.5375,-0.1997 0.1214,-0.1325 0.2091,-0.3257 0.2641,-0.5795zm1.692 -2.3704l1.2384 0 0 1.4026 1.3541 0 0 -1.4026 1.244 0 0 4.0082 -1.244 0 0 -1.621 -1.3541 0 0 1.621 -1.2384 0 0 -4.0082zm4.5878 2.893l1.1898 0 0 1.1152 -1.1898 0 0 -1.1152zm4.6045 -0.5226l1.0854 0.3285c-0.0728,0.3042 -0.1876,0.558 -0.3444,0.7624 -0.1568,0.2044 -0.3518,0.3584 -0.5842,0.462 -0.2324,0.1045 -0.5282,0.1558 -0.8866,0.1558 -0.4358,0 -0.7923,-0.0634 -1.0676,-0.1894 -0.2762,-0.1269 -0.5151,-0.35 -0.7158,-0.6691 -0.1997,-0.3192 -0.3005,-0.727 -0.3005,-1.2245 0,-0.6635 0.1764,-1.174 0.5292,-1.5295 0.3527,-0.3565 0.852,-0.5348 1.4969,-0.5348 0.5049,0 0.9015,0.1018 1.1908,0.3061 0.2893,0.2044 0.5039,0.518 0.6439,0.9407l-1.0937 0.2436c-0.0383,-0.1222 -0.0784,-0.2118 -0.1204,-0.2688 -0.0691,-0.0942 -0.154,-0.167 -0.2539,-0.2183 -0.1007,-0.0514 -0.2127,-0.0766 -0.3368,-0.0766 -0.28,0 -0.4956,0.113 -0.6449,0.3388 -0.1129,0.168 -0.1699,0.4312 -0.1699,0.7904 0,0.4452 0.0682,0.7494 0.2026,0.9146 0.1353,0.1652 0.3247,0.2473 0.5683,0.2473 0.237,0 0.4162,-0.0662 0.5375,-0.1997 0.1214,-0.1325 0.2091,-0.3257 0.2641,-0.5795zm1.5305 -0.364c0,-0.6542 0.183,-1.1637 0.5469,-1.5277 0.3649,-0.3649 0.8726,-0.5469 1.5231,-0.5469 0.6672,0 1.1814,0.1792 1.5426,0.5376 0.3602,0.3574 0.5413,0.8595 0.5413,1.5044 0,0.4684 -0.0794,0.8529 -0.2371,1.1525 -0.1577,0.2996 -0.3854,0.5329 -0.6831,0.6999 -0.2986,0.1671 -0.6691,0.2501 -1.1143,0.2501 -0.4517,0 -0.8259,-0.0718 -1.1227,-0.2156 -0.2958,-0.1446 -0.5356,-0.3723 -0.7204,-0.684 -0.1839,-0.3117 -0.2763,-0.7018 -0.2763,-1.1703zm1.2394 0.0056c0,0.405 0.0746,0.6953 0.2249,0.8726 0.1502,0.1764 0.3555,0.265 0.6141,0.265 0.2659,0 0.4722,-0.0868 0.6178,-0.2594 0.1455,-0.1736 0.2193,-0.4844 0.2193,-0.9323 0,-0.378 -0.0766,-0.6533 -0.2287,-0.8278 -0.1521,-0.1736 -0.3583,-0.2604 -0.6196,-0.2604 -0.2492,0 -0.4499,0.0878 -0.6011,0.2651 -0.1511,0.1764 -0.2267,0.4694 -0.2267,0.8772zm3.5677 -2.012l1.6294 0 0.629 2.4385 0.6262 -2.4385 1.6239 0 0 4.0082 -1.0117 0 0 -3.0563 -0.7848 3.0563 -0.9155 0 -0.7821 -3.0563 0 3.0563 -1.0144 0 0 -4.0082z"/>
  </g>
 </g>
</svg>
