<?xml version="1.0" encoding="UTF-8"?>
<!DOCTYPE svg PUBLIC "-//W3C//DTD SVG 1.1//EN" "http://www.w3.org/Graphics/SVG/1.1/DTD/svg11.dtd">
<!-- Creator: CorelDRAW -->
<svg xmlns="http://www.w3.org/2000/svg" xml:space="preserve" width="86.36mm" height="28.7866mm" style="shape-rendering:geometricPrecision; text-rendering:geometricPrecision; image-rendering:optimizeQuality; fill-rule:evenodd; clip-rule:evenodd"
viewBox="0 0 86.36 28.7866"
 xmlns:xlink="http://www.w3.org/1999/xlink">
 <defs>
  <style type="text/css">
   <![CDATA[
    .str0 {stroke:#2C9285;stroke-width:0.2495}
    .str1 {stroke:#239B8F;stroke-width:0.4827}
    .fil1 {fill:none}
    .fil2 {fill:#8C7620}
    .fil0 {fill:#ECB302}
    .fil3 {fill:#FBF20F}
    .fil5 {fill:black;fill-rule:nonzero}
    .fil4 {fill:#FFED00;fill-rule:nonzero}
   ]]>
  </style>
 </defs>
 <g id="Layer_x0020_1">
  <metadata id="CorelCorpID_0Corel-Layer"/>
  <path id="_343305600" class="fil0" d="M71.6793 13.4895l0.0981 -0.0549c-0.0325,0.0184 -0.0652,0.0367 -0.0981,0.0549z"/>
  <g id="_259728168">
   <g>
    <path id="_343461416" class="fil1 str0" d="M9.0793 4.7547c-0.1189,-0.1829 -0.2377,-0.3657 -0.3566,-0.5486 -0.433,-0.6589 -0.3442,-1.0416 0.4662,-1.0423 1.8927,0.1554 3.7853,0.3109 5.678,0.4663 1.1323,0.017 1.4005,0.5956 1.0698,1.5635 -0.5395,1.8104 -1.0789,3.6207 -1.6184,5.4311 -0.3129,0.742 -0.7569,0.785 -1.2892,0.3566l-0.384 -0.6858c-0.7955,0.5029 -1.5909,1.0058 -2.3864,1.5087 2.6858,0.8999 4.9838,2.1653 5.1019,5.486 0.059,3.0808 -1.7947,4.1723 -3.5933,5.3213 -1.3714,0.8686 -2.7429,1.7372 -4.1144,2.6059 -1.408,0.7581 -2.743,0.6041 -4.0048,-0.4664 -1.3196,-1.3237 -1.4414,-2.7634 -0.4937,-4.3064 0.5841,-1.0647 2.3712,-2.0542 4.1419,-3.0447 -4.8736,-1.4959 -6.7018,-4.0725 -4.7728,-7.9821 1.4005,-1.8595 3.837,-3.3162 6.5558,-4.6631z"/>
    <path id="_3434614161" class="fil0" d="M9.0793 4.7547c-0.1189,-0.1829 -0.2377,-0.3657 -0.3566,-0.5486 -0.433,-0.6589 -0.3442,-1.0416 0.4662,-1.0423 1.8927,0.1554 3.7853,0.3109 5.678,0.4663 1.1323,0.017 1.4005,0.5956 1.0698,1.5635 -0.5395,1.8104 -1.0789,3.6207 -1.6184,5.4311 -0.3129,0.742 -0.7569,0.785 -1.2892,0.3566l-0.384 -0.6858c-0.7955,0.5029 -1.5909,1.0058 -2.3864,1.5087 2.6858,0.8999 4.9838,2.1653 5.1019,5.486 0.059,3.0808 -1.7947,4.1723 -3.5933,5.3213 -1.3714,0.8686 -2.7429,1.7372 -4.1144,2.6059 -1.408,0.7581 -2.743,0.6041 -4.0048,-0.4664 -1.3196,-1.3237 -1.4414,-2.7634 -0.4937,-4.3064 0.5841,-1.0647 2.3712,-2.0542 4.1419,-3.0447 -4.8736,-1.4959 -6.7018,-4.0725 -4.7728,-7.9821 1.4005,-1.8595 3.837,-3.3162 6.5558,-4.6631z"/>
   </g>
   <path id="_344080176" class="fil2" d="M6.9784 5.8354c-1.0799,2.6724 1.4602,4.1381 5.1374,4.7613 -0.6446,0.5142 -1.2689,0.8177 -1.894,1.2117 -4.1324,-1.2231 -6.7305,-2.8451 -3.2434,-5.973z"/>
   <path id="_88273272" class="fil2" d="M10.5293 23.3904c1.0799,-2.6724 -1.626,-4.1589 -5.3032,-4.782 0.6446,-0.5144 1.4347,-0.8177 2.0598,-1.2117 4.1324,1.2229 6.7306,2.8658 3.2434,5.9937z"/>
   <path id="_344079816" class="fil3" d="M10.18 11.8204c2.6858,0.8999 5.0208,2.161 5.1389,5.4818 0.059,3.0808 -1.7947,4.1723 -3.5932,5.3214l-1.0578 0.6698 0.0639 -0.1179c3.1123,-2.9795 0.5458,-4.5723 -3.4822,-5.7652 -4.8699,-1.4961 -6.6962,-4.0722 -4.7679,-7.9804 1.013,-1.345 2.5679,-2.4792 4.3795,-3.5135 -3.3721,3.0827 -0.783,4.6901 3.3188,5.904 0.7101,-0.4476 0.6559,-0.4146 0,0z"/>
  </g>
  <g id="_259726632">
   <path id="_340705600" class="fil1 str1" d="M24.0419 17.3584c0,0.5934 -0.1103,1.1152 -0.3311,1.5655 -0.2206,0.4473 -0.5218,0.823 -0.9005,1.1212 -0.3786,0.3012 -0.82,0.5248 -1.3268,0.6769 -0.507,0.152 -1.0497,0.2265 -1.6253,0.2265 -0.3905,0 -0.7543,-0.0297 -1.0882,-0.0953 -0.3341,-0.0627 -0.6292,-0.1402 -0.8858,-0.2296 -0.2564,-0.0925 -0.471,-0.1849 -0.644,-0.2863 -0.17,-0.0984 -0.2952,-0.1848 -0.3697,-0.2624 -0.0776,-0.0746 -0.1312,-0.1849 -0.1611,-0.3249 -0.0327,-0.1432 -0.0476,-0.3489 -0.0476,-0.6173 0,-0.1819 0.0059,-0.3311 0.0149,-0.4533 0.0119,-0.1223 0.0327,-0.2236 0.0565,-0.2981 0.027,-0.0747 0.0628,-0.1283 0.1074,-0.1611 0.0418,-0.0327 0.0925,-0.0477 0.1521,-0.0477 0.0806,0 0.1968,0.0477 0.3459,0.1431 0.1461,0.0954 0.3369,0.2028 0.5726,0.319 0.2325,0.1164 0.5099,0.2237 0.8318,0.3192 0.3251,0.0954 0.6978,0.1431 1.1242,0.1431 0.2803,0 0.5308,-0.0328 0.7514,-0.0984 0.2207,-0.0686 0.4086,-0.164 0.5637,-0.2863 0.152,-0.1222 0.2713,-0.2714 0.3518,-0.4533 0.0835,-0.1819 0.1223,-0.3816 0.1223,-0.6022 0,-0.2565 -0.0686,-0.4772 -0.2087,-0.6591 -0.1402,-0.1848 -0.3221,-0.3488 -0.5457,-0.489 -0.2237,-0.1431 -0.4801,-0.2773 -0.7634,-0.4025 -0.2863,-0.1253 -0.5814,-0.2595 -0.8826,-0.3966 -0.3041,-0.1402 -0.5994,-0.3012 -0.8826,-0.4771 -0.2864,-0.1789 -0.5398,-0.3907 -0.7664,-0.6381 -0.2237,-0.2476 -0.4056,-0.5398 -0.5456,-0.8767 -0.1402,-0.34 -0.2089,-0.7425 -0.2089,-1.2166 0,-0.5397 0.1015,-1.0168 0.3012,-1.4283 0.1999,-0.4086 0.4712,-0.7515 0.8141,-1.0198 0.3399,-0.2713 0.7425,-0.4741 1.2047,-0.6083 0.4622,-0.1342 0.9542,-0.1998 1.473,-0.1998 0.2654,0 0.5337,0.0179 0.8022,0.0596 0.2683,0.0418 0.5187,0.0954 0.7514,0.167 0.2326,0.0686 0.4383,0.1491 0.6202,0.2355 0.1819,0.0866 0.3012,0.1611 0.3578,0.2177 0.0596,0.0597 0.0985,0.1074 0.1193,0.1492 0.0209,0.0417 0.0357,0.0954 0.0506,0.161 0.015,0.0686 0.027,0.1521 0.0329,0.2534 0.0029,0.1014 0.006,0.2296 0.006,0.3817 0,0.167 -0.0031,0.3101 -0.0119,0.4265 -0.009,0.1162 -0.0239,0.2116 -0.0448,0.2892 -0.018,0.0745 -0.0477,0.1311 -0.0865,0.164 -0.0387,0.0357 -0.0895,0.0537 -0.1521,0.0537 -0.0655,0 -0.167,-0.0418 -0.3071,-0.1224 -0.1402,-0.0804 -0.3101,-0.1699 -0.5159,-0.2654 -0.2027,-0.0984 -0.4383,-0.1848 -0.7067,-0.2623 -0.2683,-0.0805 -0.5605,-0.1193 -0.8826,-0.1193 -0.2505,0 -0.4682,0.0298 -0.653,0.0925 -0.1878,0.0596 -0.3429,0.1461 -0.4681,0.2535 -0.1253,0.1072 -0.2177,0.2355 -0.2804,0.3876 -0.0595,0.152 -0.0924,0.313 -0.0924,0.48 0,0.2505 0.0685,0.4682 0.2058,0.653 0.1371,0.1819 0.3219,0.346 0.5515,0.489 0.2297,0.1432 0.4892,0.2774 0.7814,0.3996 0.2922,0.1253 0.5873,0.2595 0.8915,0.3996 0.3011,0.1402 0.5994,0.2982 0.8916,0.4742 0.2892,0.1788 0.5486,0.3906 0.7753,0.638 0.2266,0.2476 0.4115,0.5398 0.5517,0.8737 0.1401,0.337 0.2087,0.7306 0.2087,1.1838zm4.0642 3.0773c0,0.0567 -0.0209,0.1103 -0.0597,0.1551 -0.0357,0.0477 -0.0983,0.0864 -0.1878,0.1133 -0.0864,0.0298 -0.2028,0.0537 -0.3489,0.0715 -0.1461,0.018 -0.3309,0.0268 -0.5576,0.0268 -0.2206,0 -0.4056,-0.0088 -0.5546,-0.0268 -0.1491,-0.0178 -0.2684,-0.0417 -0.3548,-0.0715 -0.0865,-0.0269 -0.1491,-0.0656 -0.1879,-0.1133 -0.0388,-0.0448 -0.0566,-0.0984 -0.0566,-0.1551l0 -10.678c0,-0.0567 0.0178,-0.1103 0.0566,-0.1551 0.0388,-0.0477 0.1014,-0.0864 0.1938,-0.1134 0.0895,-0.0297 0.2057,-0.0536 0.3518,-0.0714 0.1461,-0.018 0.3311,-0.0269 0.5517,-0.0269 0.2267,0 0.4115,0.0089 0.5576,0.0269 0.1461,0.0178 0.2625,0.0417 0.3489,0.0714 0.0895,0.027 0.1521,0.0657 0.1878,0.1134 0.0388,0.0448 0.0597,0.0984 0.0597,0.1551l0 10.678zm8.6742 -0.647c0,0.1729 -0.0059,0.322 -0.0208,0.4413 -0.015,0.1192 -0.0358,0.2176 -0.0656,0.2952 -0.0298,0.0805 -0.0656,0.1372 -0.1104,0.17 -0.0416,0.0358 -0.0954,0.0536 -0.152,0.0536l-5.1795 0c-0.1938,0 -0.3548,-0.0567 -0.486,-0.1699 -0.1313,-0.1133 -0.1968,-0.2983 -0.1968,-0.5547l0 -10.2665c0,-0.0567 0.0178,-0.1103 0.0566,-0.1551 0.0388,-0.0477 0.1014,-0.0864 0.1879,-0.1134 0.0864,-0.0297 0.2057,-0.0536 0.3548,-0.0714 0.149,-0.018 0.334,-0.0269 0.5546,-0.0269 0.2267,0 0.4115,0.0089 0.5576,0.0269 0.1461,0.0178 0.2625,0.0417 0.3489,0.0714 0.0895,0.027 0.152,0.0657 0.1878,0.1134 0.0388,0.0448 0.0597,0.0984 0.0597,0.1551l0 9.0946 3.5544 0c0.0566,0 0.1104,0.018 0.152,0.0477 0.0448,0.0329 0.0806,0.0866 0.1104,0.1581 0.0298,0.0746 0.0506,0.1699 0.0656,0.2892 0.0149,0.1193 0.0208,0.2654 0.0208,0.4414zm5.5822 0.5576c-0.0297,0.0984 -0.0685,0.1789 -0.1133,0.2415 -0.0477,0.0597 -0.1222,0.1074 -0.2266,0.1401 -0.1074,0.0299 -0.2475,0.0507 -0.4293,0.0597 -0.1819,0.0089 -0.4176,0.0148 -0.7068,0.0148 -0.2326,0 -0.4323,-0.0029 -0.5993,-0.0059 -0.167,-0.0029 -0.3072,-0.0089 -0.4235,-0.0209 -0.1163,-0.0119 -0.2117,-0.0297 -0.2832,-0.0536 -0.0746,-0.0238 -0.1343,-0.0507 -0.185,-0.0864 -0.0477,-0.0358 -0.0864,-0.0776 -0.1132,-0.1283 -0.0268,-0.0477 -0.0507,-0.1103 -0.0745,-0.1878l-3.3636 -10.0192c-0.0687,-0.2087 -0.1103,-0.3757 -0.1252,-0.4979 -0.015,-0.1223 0.0149,-0.2146 0.0864,-0.2743 0.0716,-0.0626 0.1968,-0.0984 0.3728,-0.1134 0.1729,-0.0149 0.4174,-0.0238 0.7335,-0.0238 0.2683,0 0.4771,0.006 0.6291,0.0179 0.1491,0.0119 0.2654,0.0329 0.3489,0.0626 0.0806,0.0298 0.1372,0.0716 0.17,0.1312 0.0328,0.0567 0.0626,0.1313 0.0925,0.2177l2.7522 8.719 0.0059 0 2.7016 -8.6743c0.0239,-0.1014 0.0508,-0.1789 0.0864,-0.2415 0.0358,-0.0596 0.0955,-0.1104 0.179,-0.1431 0.0835,-0.0358 0.2057,-0.0597 0.3638,-0.0716 0.1551,-0.0119 0.3727,-0.0179 0.644,-0.0179 0.2685,0 0.4772,0.0089 0.6263,0.0269 0.149,0.0178 0.2505,0.0595 0.3071,0.1281 0.0537,0.0657 0.0715,0.161 0.0507,0.2834 -0.0209,0.1222 -0.0656,0.2862 -0.1341,0.489l-3.3726 10.028zm11.6531 -0.498c0,0.17 -0.006,0.3101 -0.0209,0.4235 -0.0149,0.1132 -0.0358,0.2057 -0.0655,0.2773 -0.0299,0.0685 -0.0657,0.1192 -0.1103,0.152 -0.0419,0.0328 -0.0925,0.0477 -0.1432,0.0477l-5.6775 0c-0.1938,0 -0.3548,-0.0567 -0.486,-0.1699 -0.1313,-0.1133 -0.1968,-0.2983 -0.1968,-0.5547l0 -9.855c0,-0.2565 0.0655,-0.4414 0.1968,-0.5546 0.1312,-0.1134 0.2922,-0.17 0.486,-0.17l5.6417 0c0.0536,0 0.0984,0.0149 0.1401,0.0446 0.0418,0.027 0.0746,0.0777 0.1044,0.1522 0.0298,0.0716 0.0507,0.167 0.0656,0.2803 0.015,0.1133 0.0238,0.2564 0.0238,0.4324 0,0.1609 -0.0088,0.3012 -0.0238,0.4144 -0.0149,0.1133 -0.0358,0.2058 -0.0656,0.2744 -0.0298,0.0716 -0.0626,0.1222 -0.1044,0.152 -0.0417,0.0328 -0.0865,0.0477 -0.1401,0.0477l-4.0344 0 0 2.7612 3.4142 0c0.0536,0 0.1013,0.018 0.1461,0.0477 0.0417,0.0329 0.0775,0.0835 0.1074,0.1491 0.0297,0.0686 0.0506,0.158 0.0655,0.2714 0.0149,0.1133 0.0209,0.2504 0.0209,0.4145 0,0.1699 -0.006,0.3101 -0.0209,0.4205 -0.0149,0.1103 -0.0358,0.1997 -0.0655,0.2654 -0.0299,0.0684 -0.0657,0.1162 -0.1074,0.143 -0.0448,0.0299 -0.0925,0.0447 -0.1461,0.0447l-3.4142 0 0 3.1876 4.0702 0c0.0507,0 0.1013,0.018 0.1432,0.0508 0.0446,0.0298 0.0804,0.0805 0.1103,0.152 0.0297,0.0687 0.0506,0.161 0.0655,0.2744 0.0149,0.1133 0.0209,0.2564 0.0209,0.4234zm10.4157 0.6023c0,0.0657 -0.0119,0.1193 -0.0358,0.164 -0.0239,0.0417 -0.0775,0.0775 -0.167,0.1074 -0.0865,0.0298 -0.2146,0.0507 -0.3846,0.0626 -0.167,0.0119 -0.3966,0.0178 -0.6888,0.0178 -0.2445,0 -0.4414,-0.0059 -0.5844,-0.0178 -0.1462,-0.0119 -0.2625,-0.0358 -0.346,-0.0655 -0.0835,-0.0329 -0.1431,-0.0747 -0.1789,-0.1224 -0.0358,-0.0507 -0.0656,-0.1103 -0.0894,-0.1788l-1.0109 -2.5257c-0.1223,-0.2862 -0.2416,-0.5397 -0.3578,-0.7604 -0.1193,-0.2207 -0.2476,-0.4055 -0.3906,-0.5546 -0.1431,-0.1491 -0.3072,-0.2595 -0.492,-0.3369 -0.188,-0.0746 -0.4026,-0.1134 -0.647,-0.1134l-0.7158 0 0 4.3088c0,0.0567 -0.0208,0.1103 -0.0566,0.1551 -0.0387,0.0477 -0.1014,0.0864 -0.1879,0.1133 -0.0894,0.0298 -0.2058,0.0537 -0.3519,0.0715 -0.1431,0.018 -0.3309,0.0268 -0.5576,0.0268 -0.2206,0 -0.4054,-0.0088 -0.5546,-0.0268 -0.1491,-0.0178 -0.2684,-0.0417 -0.3548,-0.0715 -0.0865,-0.0269 -0.1491,-0.0656 -0.1819,-0.1133 -0.0358,-0.0448 -0.0536,-0.0984 -0.0536,-0.1551l0 -10.2665c0,-0.2565 0.0655,-0.4414 0.1967,-0.5546 0.1313,-0.1134 0.2922,-0.17 0.4861,-0.17l2.9252 0c0.2982,0 0.5426,0.0059 0.7335,0.0178 0.1938,0.012 0.3667,0.0268 0.5248,0.0419 0.4533,0.0655 0.8618,0.1758 1.2286,0.3339 0.3638,0.158 0.6708,0.3608 0.9243,0.6143 0.2535,0.2534 0.4473,0.5546 0.5815,0.9004 0.1342,0.346 0.1998,0.7456 0.1998,1.1928 0,0.3787 -0.0477,0.7247 -0.1431,1.0347 -0.0955,0.3131 -0.2386,0.5904 -0.4235,0.8349 -0.1879,0.2445 -0.4175,0.4563 -0.6917,0.6382 -0.2715,0.1789 -0.5844,0.325 -0.9333,0.4353 0.1699,0.0836 0.3279,0.1819 0.477,0.2982 0.1461,0.1163 0.2863,0.2565 0.4175,0.4234 0.1311,0.167 0.2564,0.3549 0.3727,0.5666 0.1163,0.2147 0.2296,0.4533 0.3399,0.7216l0.9513 2.2275c0.0894,0.2206 0.1461,0.3846 0.1758,0.486 0.0299,0.1014 0.0448,0.1819 0.0448,0.2385zm-2.964 -7.6693c0,-0.3728 -0.0834,-0.6858 -0.2534,-0.9423 -0.167,-0.2565 -0.4443,-0.4384 -0.829,-0.5426 -0.1163,-0.0299 -0.2474,-0.0538 -0.3966,-0.0687 -0.1491,-0.0178 -0.3548,-0.0268 -0.6173,-0.0268l-1.0287 0 0 3.2054 1.1689 0c0.328,0 0.6113,-0.0387 0.8559,-0.1191 0.2445,-0.0776 0.4502,-0.1879 0.6112,-0.3311 0.1641,-0.1431 0.2863,-0.3131 0.3667,-0.5099 0.0835,-0.1997 0.1223,-0.4205 0.1223,-0.6649z"/>
   <path id="_3407056001" class="fil4" d="M24.0419 17.3584c0,0.5934 -0.1103,1.1152 -0.3311,1.5655 -0.2206,0.4473 -0.5218,0.823 -0.9005,1.1212 -0.3786,0.3012 -0.82,0.5248 -1.3268,0.6769 -0.507,0.152 -1.0497,0.2265 -1.6253,0.2265 -0.3905,0 -0.7543,-0.0297 -1.0882,-0.0953 -0.3341,-0.0627 -0.6292,-0.1402 -0.8858,-0.2296 -0.2564,-0.0925 -0.471,-0.1849 -0.644,-0.2863 -0.17,-0.0984 -0.2952,-0.1848 -0.3697,-0.2624 -0.0776,-0.0746 -0.1312,-0.1849 -0.1611,-0.3249 -0.0327,-0.1432 -0.0476,-0.3489 -0.0476,-0.6173 0,-0.1819 0.0059,-0.3311 0.0149,-0.4533 0.0119,-0.1223 0.0327,-0.2236 0.0565,-0.2981 0.027,-0.0747 0.0628,-0.1283 0.1074,-0.1611 0.0418,-0.0327 0.0925,-0.0477 0.1521,-0.0477 0.0806,0 0.1968,0.0477 0.3459,0.1431 0.1461,0.0954 0.3369,0.2028 0.5726,0.319 0.2325,0.1164 0.5099,0.2237 0.8318,0.3192 0.3251,0.0954 0.6978,0.1431 1.1242,0.1431 0.2803,0 0.5308,-0.0328 0.7514,-0.0984 0.2207,-0.0686 0.4086,-0.164 0.5637,-0.2863 0.152,-0.1222 0.2713,-0.2714 0.3518,-0.4533 0.0835,-0.1819 0.1223,-0.3816 0.1223,-0.6022 0,-0.2565 -0.0686,-0.4772 -0.2087,-0.6591 -0.1402,-0.1848 -0.3221,-0.3488 -0.5457,-0.489 -0.2237,-0.1431 -0.4801,-0.2773 -0.7634,-0.4025 -0.2863,-0.1253 -0.5814,-0.2595 -0.8826,-0.3966 -0.3041,-0.1402 -0.5994,-0.3012 -0.8826,-0.4771 -0.2864,-0.1789 -0.5398,-0.3907 -0.7664,-0.6381 -0.2237,-0.2476 -0.4056,-0.5398 -0.5456,-0.8767 -0.1402,-0.34 -0.2089,-0.7425 -0.2089,-1.2166 0,-0.5397 0.1015,-1.0168 0.3012,-1.4283 0.1999,-0.4086 0.4712,-0.7515 0.8141,-1.0198 0.3399,-0.2713 0.7425,-0.4741 1.2047,-0.6083 0.4622,-0.1342 0.9542,-0.1998 1.473,-0.1998 0.2654,0 0.5337,0.0179 0.8022,0.0596 0.2683,0.0418 0.5187,0.0954 0.7514,0.167 0.2326,0.0686 0.4383,0.1491 0.6202,0.2355 0.1819,0.0866 0.3012,0.1611 0.3578,0.2177 0.0596,0.0597 0.0985,0.1074 0.1193,0.1492 0.0209,0.0417 0.0357,0.0954 0.0506,0.161 0.015,0.0686 0.027,0.1521 0.0329,0.2534 0.0029,0.1014 0.006,0.2296 0.006,0.3817 0,0.167 -0.0031,0.3101 -0.0119,0.4265 -0.009,0.1162 -0.0239,0.2116 -0.0448,0.2892 -0.018,0.0745 -0.0477,0.1311 -0.0865,0.164 -0.0387,0.0357 -0.0895,0.0537 -0.1521,0.0537 -0.0655,0 -0.167,-0.0418 -0.3071,-0.1224 -0.1402,-0.0804 -0.3101,-0.1699 -0.5159,-0.2654 -0.2027,-0.0984 -0.4383,-0.1848 -0.7067,-0.2623 -0.2683,-0.0805 -0.5605,-0.1193 -0.8826,-0.1193 -0.2505,0 -0.4682,0.0298 -0.653,0.0925 -0.1878,0.0596 -0.3429,0.1461 -0.4681,0.2535 -0.1253,0.1072 -0.2177,0.2355 -0.2804,0.3876 -0.0595,0.152 -0.0924,0.313 -0.0924,0.48 0,0.2505 0.0685,0.4682 0.2058,0.653 0.1371,0.1819 0.3219,0.346 0.5515,0.489 0.2297,0.1432 0.4892,0.2774 0.7814,0.3996 0.2922,0.1253 0.5873,0.2595 0.8915,0.3996 0.3011,0.1402 0.5994,0.2982 0.8916,0.4742 0.2892,0.1788 0.5486,0.3906 0.7753,0.638 0.2266,0.2476 0.4115,0.5398 0.5517,0.8737 0.1401,0.337 0.2087,0.7306 0.2087,1.1838zm4.0642 3.0773c0,0.0567 -0.0209,0.1103 -0.0597,0.1551 -0.0357,0.0477 -0.0983,0.0864 -0.1878,0.1133 -0.0864,0.0298 -0.2028,0.0537 -0.3489,0.0715 -0.1461,0.018 -0.3309,0.0268 -0.5576,0.0268 -0.2206,0 -0.4056,-0.0088 -0.5546,-0.0268 -0.1491,-0.0178 -0.2684,-0.0417 -0.3548,-0.0715 -0.0865,-0.0269 -0.1491,-0.0656 -0.1879,-0.1133 -0.0388,-0.0448 -0.0566,-0.0984 -0.0566,-0.1551l0 -10.678c0,-0.0567 0.0178,-0.1103 0.0566,-0.1551 0.0388,-0.0477 0.1014,-0.0864 0.1938,-0.1134 0.0895,-0.0297 0.2057,-0.0536 0.3518,-0.0714 0.1461,-0.018 0.3311,-0.0269 0.5517,-0.0269 0.2267,0 0.4115,0.0089 0.5576,0.0269 0.1461,0.0178 0.2625,0.0417 0.3489,0.0714 0.0895,0.027 0.1521,0.0657 0.1878,0.1134 0.0388,0.0448 0.0597,0.0984 0.0597,0.1551l0 10.678zm8.6742 -0.647c0,0.1729 -0.0059,0.322 -0.0208,0.4413 -0.015,0.1192 -0.0358,0.2176 -0.0656,0.2952 -0.0298,0.0805 -0.0656,0.1372 -0.1104,0.17 -0.0416,0.0358 -0.0954,0.0536 -0.152,0.0536l-5.1795 0c-0.1938,0 -0.3548,-0.0567 -0.486,-0.1699 -0.1313,-0.1133 -0.1968,-0.2983 -0.1968,-0.5547l0 -10.2665c0,-0.0567 0.0178,-0.1103 0.0566,-0.1551 0.0388,-0.0477 0.1014,-0.0864 0.1879,-0.1134 0.0864,-0.0297 0.2057,-0.0536 0.3548,-0.0714 0.149,-0.018 0.334,-0.0269 0.5546,-0.0269 0.2267,0 0.4115,0.0089 0.5576,0.0269 0.1461,0.0178 0.2625,0.0417 0.3489,0.0714 0.0895,0.027 0.152,0.0657 0.1878,0.1134 0.0388,0.0448 0.0597,0.0984 0.0597,0.1551l0 9.0946 3.5544 0c0.0566,0 0.1104,0.018 0.152,0.0477 0.0448,0.0329 0.0806,0.0866 0.1104,0.1581 0.0298,0.0746 0.0506,0.1699 0.0656,0.2892 0.0149,0.1193 0.0208,0.2654 0.0208,0.4414zm5.5822 0.5576c-0.0297,0.0984 -0.0685,0.1789 -0.1133,0.2415 -0.0477,0.0597 -0.1222,0.1074 -0.2266,0.1401 -0.1074,0.0299 -0.2475,0.0507 -0.4293,0.0597 -0.1819,0.0089 -0.4176,0.0148 -0.7068,0.0148 -0.2326,0 -0.4323,-0.0029 -0.5993,-0.0059 -0.167,-0.0029 -0.3072,-0.0089 -0.4235,-0.0209 -0.1163,-0.0119 -0.2117,-0.0297 -0.2832,-0.0536 -0.0746,-0.0238 -0.1343,-0.0507 -0.185,-0.0864 -0.0477,-0.0358 -0.0864,-0.0776 -0.1132,-0.1283 -0.0268,-0.0477 -0.0507,-0.1103 -0.0745,-0.1878l-3.3636 -10.0192c-0.0687,-0.2087 -0.1103,-0.3757 -0.1252,-0.4979 -0.015,-0.1223 0.0149,-0.2146 0.0864,-0.2743 0.0716,-0.0626 0.1968,-0.0984 0.3728,-0.1134 0.1729,-0.0149 0.4174,-0.0238 0.7335,-0.0238 0.2683,0 0.4771,0.006 0.6291,0.0179 0.1491,0.0119 0.2654,0.0329 0.3489,0.0626 0.0806,0.0298 0.1372,0.0716 0.17,0.1312 0.0328,0.0567 0.0626,0.1313 0.0925,0.2177l2.7522 8.719 0.0059 0 2.7016 -8.6743c0.0239,-0.1014 0.0508,-0.1789 0.0864,-0.2415 0.0358,-0.0596 0.0955,-0.1104 0.179,-0.1431 0.0835,-0.0358 0.2057,-0.0597 0.3638,-0.0716 0.1551,-0.0119 0.3727,-0.0179 0.644,-0.0179 0.2685,0 0.4772,0.0089 0.6263,0.0269 0.149,0.0178 0.2505,0.0595 0.3071,0.1281 0.0537,0.0657 0.0715,0.161 0.0507,0.2834 -0.0209,0.1222 -0.0656,0.2862 -0.1341,0.489l-3.3726 10.028zm11.6531 -0.498c0,0.17 -0.006,0.3101 -0.0209,0.4235 -0.0149,0.1132 -0.0358,0.2057 -0.0655,0.2773 -0.0299,0.0685 -0.0657,0.1192 -0.1103,0.152 -0.0419,0.0328 -0.0925,0.0477 -0.1432,0.0477l-5.6775 0c-0.1938,0 -0.3548,-0.0567 -0.486,-0.1699 -0.1313,-0.1133 -0.1968,-0.2983 -0.1968,-0.5547l0 -9.855c0,-0.2565 0.0655,-0.4414 0.1968,-0.5546 0.1312,-0.1134 0.2922,-0.17 0.486,-0.17l5.6417 0c0.0536,0 0.0984,0.0149 0.1401,0.0446 0.0418,0.027 0.0746,0.0777 0.1044,0.1522 0.0298,0.0716 0.0507,0.167 0.0656,0.2803 0.015,0.1133 0.0238,0.2564 0.0238,0.4324 0,0.1609 -0.0088,0.3012 -0.0238,0.4144 -0.0149,0.1133 -0.0358,0.2058 -0.0656,0.2744 -0.0298,0.0716 -0.0626,0.1222 -0.1044,0.152 -0.0417,0.0328 -0.0865,0.0477 -0.1401,0.0477l-4.0344 0 0 2.7612 3.4142 0c0.0536,0 0.1013,0.018 0.1461,0.0477 0.0417,0.0329 0.0775,0.0835 0.1074,0.1491 0.0297,0.0686 0.0506,0.158 0.0655,0.2714 0.0149,0.1133 0.0209,0.2504 0.0209,0.4145 0,0.1699 -0.006,0.3101 -0.0209,0.4205 -0.0149,0.1103 -0.0358,0.1997 -0.0655,0.2654 -0.0299,0.0684 -0.0657,0.1162 -0.1074,0.143 -0.0448,0.0299 -0.0925,0.0447 -0.1461,0.0447l-3.4142 0 0 3.1876 4.0702 0c0.0507,0 0.1013,0.018 0.1432,0.0508 0.0446,0.0298 0.0804,0.0805 0.1103,0.152 0.0297,0.0687 0.0506,0.161 0.0655,0.2744 0.0149,0.1133 0.0209,0.2564 0.0209,0.4234zm10.4157 0.6023c0,0.0657 -0.0119,0.1193 -0.0358,0.164 -0.0239,0.0417 -0.0775,0.0775 -0.167,0.1074 -0.0865,0.0298 -0.2146,0.0507 -0.3846,0.0626 -0.167,0.0119 -0.3966,0.0178 -0.6888,0.0178 -0.2445,0 -0.4414,-0.0059 -0.5844,-0.0178 -0.1462,-0.0119 -0.2625,-0.0358 -0.346,-0.0655 -0.0835,-0.0329 -0.1431,-0.0747 -0.1789,-0.1224 -0.0358,-0.0507 -0.0656,-0.1103 -0.0894,-0.1788l-1.0109 -2.5257c-0.1223,-0.2862 -0.2416,-0.5397 -0.3578,-0.7604 -0.1193,-0.2207 -0.2476,-0.4055 -0.3906,-0.5546 -0.1431,-0.1491 -0.3072,-0.2595 -0.492,-0.3369 -0.188,-0.0746 -0.4026,-0.1134 -0.647,-0.1134l-0.7158 0 0 4.3088c0,0.0567 -0.0208,0.1103 -0.0566,0.1551 -0.0387,0.0477 -0.1014,0.0864 -0.1879,0.1133 -0.0894,0.0298 -0.2058,0.0537 -0.3519,0.0715 -0.1431,0.018 -0.3309,0.0268 -0.5576,0.0268 -0.2206,0 -0.4054,-0.0088 -0.5546,-0.0268 -0.1491,-0.0178 -0.2684,-0.0417 -0.3548,-0.0715 -0.0865,-0.0269 -0.1491,-0.0656 -0.1819,-0.1133 -0.0358,-0.0448 -0.0536,-0.0984 -0.0536,-0.1551l0 -10.2665c0,-0.2565 0.0655,-0.4414 0.1967,-0.5546 0.1313,-0.1134 0.2922,-0.17 0.4861,-0.17l2.9252 0c0.2982,0 0.5426,0.0059 0.7335,0.0178 0.1938,0.012 0.3667,0.0268 0.5248,0.0419 0.4533,0.0655 0.8618,0.1758 1.2286,0.3339 0.3638,0.158 0.6708,0.3608 0.9243,0.6143 0.2535,0.2534 0.4473,0.5546 0.5815,0.9004 0.1342,0.346 0.1998,0.7456 0.1998,1.1928 0,0.3787 -0.0477,0.7247 -0.1431,1.0347 -0.0955,0.3131 -0.2386,0.5904 -0.4235,0.8349 -0.1879,0.2445 -0.4175,0.4563 -0.6917,0.6382 -0.2715,0.1789 -0.5844,0.325 -0.9333,0.4353 0.1699,0.0836 0.3279,0.1819 0.477,0.2982 0.1461,0.1163 0.2863,0.2565 0.4175,0.4234 0.1311,0.167 0.2564,0.3549 0.3727,0.5666 0.1163,0.2147 0.2296,0.4533 0.3399,0.7216l0.9513 2.2275c0.0894,0.2206 0.1461,0.3846 0.1758,0.486 0.0299,0.1014 0.0448,0.1819 0.0448,0.2385zm-2.964 -7.6693c0,-0.3728 -0.0834,-0.6858 -0.2534,-0.9423 -0.167,-0.2565 -0.4443,-0.4384 -0.829,-0.5426 -0.1163,-0.0299 -0.2474,-0.0538 -0.3966,-0.0687 -0.1491,-0.0178 -0.3548,-0.0268 -0.6173,-0.0268l-1.0287 0 0 3.2054 1.1689 0c0.328,0 0.6113,-0.0387 0.8559,-0.1191 0.2445,-0.0776 0.4502,-0.1879 0.6112,-0.3311 0.1641,-0.1431 0.2863,-0.3131 0.3667,-0.5099 0.0835,-0.1997 0.1223,-0.4205 0.1223,-0.6649z"/>
  </g>
  <path id="_1" class="fil5" d="M68.9721 20.5787c0,0.0595 -0.0034,0.1122 -0.0102,0.1564 -0.0051,0.0459 -0.017,0.0833 -0.034,0.1122 -0.017,0.0306 -0.0357,0.051 -0.0578,0.0646 -0.0204,0.0136 -0.0459,0.0204 -0.0714,0.0204l-3.0937 0c-0.0764,0 -0.1478,-0.0255 -0.2158,-0.0765 -0.068,-0.0527 -0.102,-0.1428 -0.102,-0.2719l0 -5.7471c0,-0.1292 0.034,-0.2193 0.102,-0.272 0.068,-0.051 0.1394,-0.0765 0.2158,-0.0765l3.058 0c0.0272,0 0.051,0.0068 0.0731,0.0204 0.0204,0.0136 0.0391,0.034 0.051,0.0646 0.0136,0.0289 0.0255,0.0663 0.034,0.1122 0.0068,0.0442 0.0119,0.1003 0.0119,0.1665 0,0.0596 -0.0051,0.1123 -0.0119,0.1565 -0.0085,0.0459 -0.0204,0.0816 -0.034,0.1104 -0.0119,0.0272 -0.0306,0.0476 -0.051,0.0612 -0.0221,0.0136 -0.0459,0.0204 -0.0731,0.0204l-2.5191 0 0 2.0211 2.1604 0c0.0272,0 0.051,0.0085 0.0732,0.0238 0.0204,0.0136 0.039,0.0357 0.0543,0.0612 0.0154,0.0272 0.0255,0.0629 0.0323,0.1105 0.0068,0.0459 0.0103,0.1002 0.0103,0.1632 0,0.0595 -0.0035,0.1122 -0.0103,0.1547 -0.0068,0.0441 -0.0169,0.0781 -0.0323,0.1053 -0.0153,0.0255 -0.0339,0.0459 -0.0543,0.0561 -0.0222,0.0119 -0.046,0.0187 -0.0732,0.0187l-2.1604 0 0 2.305 2.5548 0c0.0255,0 0.051,0.0068 0.0714,0.0204 0.0221,0.0136 0.0408,0.034 0.0578,0.0612 0.017,0.0289 0.0289,0.0646 0.034,0.1105 0.0068,0.0441 0.0102,0.1002 0.0102,0.1665zm5.4988 0.0442c0.0425,0.0731 0.0697,0.1326 0.0765,0.1751 0.0086,0.0425 -0.0017,0.0765 -0.0322,0.102 -0.0289,0.0255 -0.0783,0.0408 -0.1462,0.0493 -0.068,0.0085 -0.1581,0.0136 -0.272,0.0136 -0.1054,0 -0.1887,-0.0034 -0.2482,-0.0085 -0.0595,-0.0051 -0.1071,-0.0136 -0.1427,-0.0272 -0.034,-0.0136 -0.0612,-0.0289 -0.08,-0.0476 -0.0169,-0.0187 -0.034,-0.0425 -0.0459,-0.0714l-1.4346 -2.565 -1.4499 2.565c-0.0154,0.0289 -0.034,0.0544 -0.0544,0.0748 -0.0204,0.0187 -0.0476,0.0357 -0.0816,0.0476 -0.0357,0.0102 -0.0833,0.0187 -0.1428,0.0238 -0.0595,0.0051 -0.1394,0.0085 -0.238,0.0085 -0.1104,0 -0.1972,-0.0051 -0.2601,-0.0136 -0.0628,-0.0085 -0.107,-0.0238 -0.1308,-0.0493 -0.0256,-0.0255 -0.034,-0.0595 -0.0256,-0.102 0.0086,-0.0425 0.034,-0.102 0.0766,-0.1751l1.7592 -2.9627 -1.6794 -2.8625c-0.0391,-0.0731 -0.0645,-0.1326 -0.0764,-0.1768 -0.012,-0.0459 -0.0052,-0.0799 0.022,-0.1054 0.0272,-0.0255 0.0732,-0.0408 0.1394,-0.0476 0.0663,-0.0068 0.1581,-0.0102 0.2737,-0.0102 0.1003,0 0.1819,0.0034 0.2448,0.0086 0.0629,0.005 0.1122,0.0136 0.1496,0.0237 0.0356,0.0119 0.0628,0.0289 0.0781,0.051 0.0171,0.0204 0.0358,0.0459 0.0562,0.0714l1.3836 2.4103 1.3751 -2.4103c0.0171,-0.0255 0.0324,-0.051 0.0493,-0.0714 0.0171,-0.0221 0.0408,-0.0391 0.0731,-0.051 0.0306,-0.0101 0.0748,-0.0187 0.1309,-0.0237 0.0561,-0.0052 0.1326,-0.0086 0.2295,-0.0086 0.102,0 0.187,0.0051 0.2515,0.0136 0.0647,0.0086 0.1105,0.0238 0.1395,0.0476 0.0288,0.0221 0.039,0.0561 0.0322,0.102 -0.0068,0.0442 -0.0306,0.1037 -0.0697,0.1768l-1.6726 2.8421 1.7423 2.9831zm5.2083 -0.6017c0,0.0527 -0.0017,0.0986 -0.0051,0.1394 -0.0034,0.0391 -0.0085,0.0748 -0.017,0.1036 -0.0085,0.0307 -0.0187,0.0579 -0.0323,0.08 -0.0136,0.0237 -0.0374,0.0526 -0.0697,0.0849 -0.034,0.034 -0.1037,0.0833 -0.2091,0.1513 -0.1071,0.068 -0.238,0.136 -0.396,0.2006 -0.1581,0.0646 -0.3383,0.119 -0.5423,0.1632 -0.204,0.0459 -0.4283,0.068 -0.6697,0.068 -0.4199,0 -0.7972,-0.0697 -1.1338,-0.2091 -0.3365,-0.1394 -0.6238,-0.3451 -0.8618,-0.617 -0.2362,-0.2737 -0.4198,-0.6085 -0.5473,-1.0097 -0.1275,-0.3995 -0.1921,-0.8601 -0.1921,-1.3819 0,-0.5338 0.0697,-1.0098 0.2074,-1.4296 0.1377,-0.4181 0.3315,-0.7717 0.5796,-1.0623 0.2499,-0.2907 0.5474,-0.5117 0.8941,-0.6647 0.3468,-0.153 0.7309,-0.2295 1.1525,-0.2295 0.1869,0 0.3671,0.0171 0.5439,0.0527 0.1751,0.034 0.3383,0.0782 0.4879,0.1309 0.1495,0.0544 0.2822,0.1156 0.3977,0.1853 0.1156,0.0697 0.1972,0.1275 0.2414,0.1716 0.0442,0.0443 0.0748,0.0783 0.0867,0.102 0.0136,0.0239 0.0255,0.0511 0.0323,0.0816 0.0085,0.0324 0.0153,0.0697 0.0204,0.1122 0.0051,0.0443 0.0085,0.0952 0.0085,0.1547 0,0.0663 -0.0034,0.1224 -0.0102,0.17 -0.0068,0.0459 -0.017,0.085 -0.0306,0.1173 -0.0136,0.0306 -0.0289,0.0544 -0.0476,0.0696 -0.0187,0.0136 -0.0408,0.0222 -0.0663,0.0222 -0.0476,0 -0.1122,-0.0323 -0.1955,-0.0969 -0.0816,-0.0646 -0.1886,-0.136 -0.3213,-0.2142 -0.1309,-0.0782 -0.2889,-0.1496 -0.4776,-0.2141 -0.187,-0.0647 -0.4113,-0.0969 -0.6748,-0.0969 -0.2856,0 -0.5456,0.0561 -0.7785,0.1716 -0.2346,0.1139 -0.4352,0.2822 -0.6,0.5049 -0.1666,0.2227 -0.2958,0.4946 -0.3859,0.8141 -0.0918,0.3197 -0.1377,0.6868 -0.1377,1.0981 0,0.408 0.0442,0.7701 0.1326,1.0828 0.0867,0.3145 0.2141,0.5763 0.3774,0.787 0.1648,0.2108 0.3671,0.3706 0.6051,0.4777 0.2396,0.1088 0.5099,0.1632 0.8125,0.1632 0.255,0 0.4794,-0.0324 0.6697,-0.0952 0.1904,-0.0629 0.3535,-0.1343 0.4879,-0.2125 0.1342,-0.0782 0.2447,-0.1479 0.3314,-0.2108 0.0867,-0.0629 0.1547,-0.0952 0.204,-0.0952 0.0238,0 0.0425,0.0051 0.0595,0.0153 0.017,0.0102 0.0306,0.029 0.0408,0.0578 0.0085,0.0272 0.017,0.0663 0.0221,0.1173 0.0051,0.0493 0.0068,0.1122 0.0068,0.1887zm5.7759 0.7819c0,0.0255 -0.0068,0.0493 -0.0187,0.0697 -0.0136,0.0204 -0.0374,0.0357 -0.0697,0.0476 -0.034,0.0119 -0.0782,0.0204 -0.1326,0.0289 -0.0544,0.0085 -0.1224,0.0136 -0.2022,0.0136 -0.0851,0 -0.1548,-0.0051 -0.2091,-0.0136 -0.0527,-0.0085 -0.0952,-0.017 -0.1292,-0.0289 -0.0323,-0.0119 -0.0561,-0.0272 -0.0697,-0.0476 -0.0136,-0.0204 -0.0204,-0.0442 -0.0204,-0.0697l0 -2.8591 -2.9322 0 0 2.8591c0,0.0255 -0.0068,0.0493 -0.0204,0.0697 -0.0136,0.0204 -0.0357,0.0357 -0.0697,0.0476 -0.0323,0.0119 -0.0765,0.0204 -0.1325,0.0289 -0.0544,0.0085 -0.1225,0.0136 -0.2057,0.0136 -0.0799,0 -0.1479,-0.0051 -0.204,-0.0136 -0.0561,-0.0085 -0.102,-0.017 -0.1343,-0.0289 -0.034,-0.0119 -0.0578,-0.0272 -0.0697,-0.0476 -0.0136,-0.0204 -0.0204,-0.0442 -0.0204,-0.0697l0 -6.1856c0,-0.0255 0.0068,-0.0493 0.0204,-0.0697 0.0119,-0.0204 0.0357,-0.0357 0.0697,-0.0475 0.0323,-0.012 0.0782,-0.0204 0.1343,-0.029 0.0561,-0.0085 0.1241,-0.0136 0.204,-0.0136 0.0832,0 0.1513,0.0051 0.2057,0.0136 0.056,0.0086 0.1002,0.017 0.1325,0.029 0.034,0.0118 0.0561,0.0271 0.0697,0.0475 0.0136,0.0204 0.0204,0.0442 0.0204,0.0697l0 2.5803 2.9322 0 0 -2.5803c0,-0.0255 0.0068,-0.0493 0.0204,-0.0697 0.0136,-0.0204 0.0374,-0.0357 0.0697,-0.0475 0.034,-0.012 0.0765,-0.0204 0.1292,-0.029 0.0543,-0.0085 0.124,-0.0136 0.2091,-0.0136 0.0798,0 0.1478,0.0051 0.2022,0.0136 0.0544,0.0086 0.0986,0.017 0.1326,0.029 0.0323,0.0118 0.0561,0.0271 0.0697,0.0475 0.0119,0.0204 0.0187,0.0442 0.0187,0.0697l0 6.1856z"/>
 </g>
</svg>
